<svg width="14" height="20" fill="none" xmlns="http://www.w3.org/2000/svg"><path d="M10.74 8.3c.62-1.67 1.1-3.05 1.44-4.13a9.996 9.996 0 0 0 .52-2 1 1 0 0 0-.17-.62.591.591 0 0 0-.48-.22c-.25 0-.52.22-.78.64a11 11 0 0 0-.89 2L9 7.97l1.74.33ZM8.9 11.99a9.63 9.63 0 0 1-1.12-.12 7.015 7.015 0 0 1-1-.28c.15.3.28.59.4.88.11.284.204.575.28.87.21-.271.444-.522.7-.75.24-.217.494-.417.76-.6H8.9ZM7.34 7.83 5.85 3.5a12.27 12.27 0 0 0-.89-2.13c-.22-.34-.45-.5-.69-.5a.56.56 0 0 0-.47.22.89.89 0 0 0-.18.59 8.88 8.88 0 0 0 .48 2.19c.32 1 .81 2.42 1.45 4.11a.43.43 0 0 1 .23-.21 1.21 1.21 0 0 1 .42-.06h.33l.81.07v.05ZM6 14.5a.57.57 0 0 0 .43-.21.651.651 0 0 0 .19-.46 4.43 4.43 0 0 0-.38-1.21 11.377 11.377 0 0 0-.94-1.88 4.53 4.53 0 0 0-.82-1 1.19 1.19 0 0 0-.76-.35 1 1 0 0 0-.64.37 1 1 0 0 0-.35.68c.039.354.155.696.34 1 .268.494.579.962.93 1.4a7.3 7.3 0 0 0 1.15 1.26c.229.236.526.394.85.45v-.05Zm-4.14-.33.54.69c.61.84 1.17 1.25 1.68 1.25a.72.72 0 0 0 .47-.16.46.46 0 0 0 .21-.35 1.65 1.65 0 0 0-.28-.68 7.568 7.568 0 0 0-.76-1.09 8.77 8.77 0 0 0-.91-1 1 1 0 0 0-.59-.33 1.16 1.16 0 0 0-.89.52 1.91 1.91 0 0 0-.41 1.22c.011.43.106.855.28 1.25.213.5.488.97.82 1.4a5.56 5.56 0 0 0 2 1.67 6 6 0 0 0 2.67.58 5.852 5.852 0 0 0 4.51-2 7.16 7.16 0 0 0 1.81-5 5.747 5.747 0 0 0-.14-1.46 1.42 1.42 0 0 0-.45-.79 5.79 5.79 0 0 0-2.2-.84 15.86 15.86 0 0 0-3.42-.37 1.12 1.12 0 0 0-.7.17.68.68 0 0 0-.21.56 1.42 1.42 0 0 0 1.05 1.35 9.891 9.891 0 0 0 3.39.42h.57a.37.37 0 0 1 .31.15.86.86 0 0 1 .16.43 3.3 3.3 0 0 1-1 .5 5.26 5.26 0 0 0-1.12.56 5 5 0 0 0-1.33 1.43 3.13 3.13 0 0 0-.5 1.58c.014.372.085.74.21 1.09.105.254.179.519.22.79v.22a1.18 1.18 0 0 1-1-.71 3.88 3.88 0 0 1-.35-1.78v-.12a.742.742 0 0 1-.22.13.54.54 0 0 1-.22.05h-.24l-.25-.07c.03.098.05.198.06.3a1.11 1.11 0 0 1 0 .23 1.13 1.13 0 0 1-.41.87 1.36 1.36 0 0 1-.95.36 2.64 2.64 0 0 1-1.77-.84 2.4 2.4 0 0 1-.89-1.66 1.12 1.12 0 0 1 0-.27.47.47 0 0 1 .12-.2l.13-.05Zm9.88-5.6a2.51 2.51 0 0 1 1.76 1 5 5 0 0 1 .51 2.56 7.92 7.92 0 0 1-2.09 5.67A7.091 7.091 0 0 1 6.57 20a6.83 6.83 0 0 1-2.49-.46A6.18 6.18 0 0 1 2 18.26a6.49 6.49 0 0 1-1.49-1.92 4.51 4.51 0 0 1-.5-2.07 2.91 2.91 0 0 1 .51-1.83 2.65 2.65 0 0 1 1.62-.87 8.383 8.383 0 0 1-.31-.81 2.101 2.101 0 0 1-.09-.51 1.82 1.82 0 0 1 .65-1.27 1.85 1.85 0 0 1 1.24-.64c.177.002.353.033.52.09.222.077.436.174.64.29-.706-2-1.223-3.54-1.55-4.62a9.66 9.66 0 0 1-.48-2.25A2 2 0 0 1 3.2.5 1.52 1.52 0 0 1 4.4 0c.87 0 2 1.92 3.29 5.77.23.66.4 1.17.52 1.52.1-.28.24-.68.43-1.2C9.97 2.28 11.1.37 12.06.37a1.46 1.46 0 0 1 1.13.47c.295.36.445.816.42 1.28a10.227 10.227 0 0 1-.46 2.21c-.306 1.067-.776 2.467-1.41 4.2v.04Z" fill="currentColor"/></svg>