<svg width="20" height="18" fill="none" xmlns="http://www.w3.org/2000/svg"><path d="M6.29 17.254c7.547 0 11.675-6.253 11.675-11.675 0-.178-.004-.354-.012-.53A8.34 8.34 0 0 0 20 2.924a8.165 8.165 0 0 1-2.356.646 4.12 4.12 0 0 0 1.804-2.27 8.198 8.198 0 0 1-2.606.996A4.104 4.104 0 0 0 9.85 6.039a11.652 11.652 0 0 1-8.458-4.287 4.101 4.101 0 0 0 1.27 5.477 4.058 4.058 0 0 1-1.858-.513l-.001.052a4.104 4.104 0 0 0 3.292 4.023 4.106 4.106 0 0 1-1.853.07 4.108 4.108 0 0 0 3.833 2.85 8.232 8.232 0 0 1-5.096 1.757c-.327 0-.654-.019-.979-.057a11.613 11.613 0 0 0 6.29 1.843" fill="currentColor"/></svg>