<svg viewBox="0 0 206 276" fill="none" xmlns="http://www.w3.org/2000/svg"><g opacity=".3"><path d="m43.109 180.254 47.552-17.813-.183 70.955-47.53 17.813.16-70.955ZM43.154 139.528l47.53-17.813-.023 40.725-47.553 17.813.046-40.725Z" stroke="#fff" stroke-miterlimit="10"/><path d="m43.2 119.314 47.53-17.835-.047 20.236-47.529 17.814.046-20.215Z" stroke="#fff" stroke-miterlimit="10"/><path d="M49.316 93.979c-3.917 6.265-6.116 14.84-6.139 25.45v60.963l-.16 70.886-41.872-8.666.23-131.3c0-25.405 6.87-45.505 18.324-58.927l29.617 41.594Z" stroke="#fff" stroke-miterlimit="10"/><path d="m49.316 93.978 47.53-17.813-.55.914-47.53 17.813.55-.914Z" stroke="#fff" stroke-miterlimit="10"/><path d="m48.766 94.777 47.53-17.813c-.367.61-.71 1.25-1.031 1.921l-47.53 17.836c.32-.663.665-1.326 1.031-1.944" stroke="#fff" stroke-miterlimit="10"/><path d="m47.735 96.722 47.53-17.835a48.075 48.075 0 0 0-.87 1.897l-47.53 17.768a35.6 35.6 0 0 1 .87-1.875" stroke="#fff" stroke-miterlimit="10"/><path d="m46.865 98.551 47.53-17.813a37.477 37.477 0 0 0-.734 1.92l-47.53 17.814a37.23 37.23 0 0 1 .734-1.921ZM46.132 100.518 93.66 82.705a37.865 37.865 0 0 0-.642 1.921l-47.552 17.836a38.84 38.84 0 0 1 .665-1.944M45.467 102.462l47.552-17.836c-.206.663-.39 1.326-.573 2.012l-47.529 17.813c.16-.686.367-1.349.55-1.989Z" stroke="#fff" stroke-miterlimit="10"/><path d="m44.917 104.451 47.53-17.813c-.16.686-.344 1.372-.481 2.08l-47.53 17.814c.138-.709.298-1.395.481-2.081ZM44.437 106.532l47.529-17.813c-.153.731-.29 1.494-.412 2.286l-47.53 17.813c.123-.731.26-1.494.413-2.286Z" stroke="#fff" stroke-miterlimit="10"/><path d="m44.024 108.727 47.53-17.813c-.138.754-.23 1.532-.344 2.287l-47.53 17.813c.092-.778.207-1.54.344-2.287ZM43.68 111.058l47.53-17.813c0 .824-.183 1.647-.251 2.493l-47.53 17.813c0-.846.137-1.669.252-2.493ZM43.43 113.551l47.529-17.813c0 .869-.138 1.783-.16 2.698l-47.553 17.813c0-.915 0-1.806.183-2.698" stroke="#fff" stroke-miterlimit="10"/><path d="M43.245 116.25 90.89 98.551v2.95l-47.712 17.63v-2.949" stroke="#fff" stroke-miterlimit="10"/><path d="m43.177 119.131 47.552-17.813v.114l-47.552 17.813v-.114Z" stroke="#fff" stroke-miterlimit="10"/><path d="m49.316 93.978 47.53-17.813c-3.918 6.265-6.094 14.84-6.117 25.45l-47.552 17.813c.023-10.724 2.222-19.299 6.139-25.45ZM19.676 52.383l47.53-17.836 29.64 41.503-47.53 17.813-29.64-41.48Z" stroke="#fff" stroke-miterlimit="10"/><path d="m61.432 83.666 47.553-17.836a23.093 23.093 0 0 0-5.887 3.247L55.569 86.89a22.914 22.914 0 0 1 5.863-3.224" stroke="#fff" stroke-miterlimit="10"/><path d="m61.432 83.666 47.553-17.836a23.093 23.093 0 0 0-5.887 3.247L55.569 86.89a22.914 22.914 0 0 1 5.863-3.224ZM41.642 36.811l47.53-17.813c.618-.252 1.26-.457 1.878-.663L43.52 36.148l-1.878.663ZM43.521 36.217l47.53-17.813a53.207 53.207 0 0 1 6.367-1.715L49.866 34.525a57.477 57.477 0 0 0-6.345 1.715" stroke="#fff" stroke-miterlimit="10"/><path d="M49.865 34.525 97.417 16.71c1.741-.365 3.528-.64 5.36-.846L55.225 33.678c-1.81.206-3.596.48-5.36.847Z" stroke="#fff" stroke-miterlimit="10"/><path d="m55.225 33.655 47.552-17.813a68.565 68.565 0 0 1 4.902-.365l-47.53 17.836c-1.671 0-3.298.16-4.924.342M60.15 33.313l47.53-17.836h4.695L64.823 33.29h-4.581M64.823 33.312 112.375 15.5c1.489 0 3.023.16 4.581.297l-47.53 17.836a62.605 62.605 0 0 0-4.58-.32" stroke="#fff" stroke-miterlimit="10"/><path d="m69.405 33.632 47.529-17.836c1.512.16 3.024.366 4.581.595L73.963 34.225a61.135 61.135 0 0 0-4.581-.594" stroke="#fff" stroke-miterlimit="10"/><path d="m73.94 34.228 47.552-17.836c1.191.206 2.29.412 3.618.663L77.581 34.891a67.685 67.685 0 0 0-3.642-.663Z" stroke="#fff" stroke-miterlimit="10"/><path d="m41.642 36.812 47.53-17.813a64.445 64.445 0 0 1 35.938-2.013L77.581 34.822a64.423 64.423 0 0 0-35.939 1.99ZM153.399 164.087l47.53-17.813-.206 109.805-47.53 17.836.206-109.828Z" stroke="#fff" stroke-miterlimit="10"/><path d="m52.431 182.174.092-38.85L153.4 164.087l-.206 109.828-41.803-8.621.137-70.955-59.097-12.165Z" stroke="#fff" stroke-miterlimit="10"/><path d="m52.522 143.325 47.53-17.836 100.876 20.785-47.529 17.813-100.877-20.762Z" stroke="#fff" stroke-miterlimit="10"/><path d="m153.422 142.638 47.552-17.813-.022 10.359-47.553 17.813.023-10.359Z" stroke="#fff" stroke-miterlimit="10"/><path d="M77.582 34.89c44.414 9.147 75.932 52.365 75.841 107.748v10.358l-41.918-8.597V133.4c0-26.754-13.743-46.397-34.13-50.604a26.363 26.363 0 0 0-21.92 4.093L26.25 45.958c13.194-11.159 30.922-15.275 51.332-11.067Z" stroke="#fff" stroke-miterlimit="10"/><path d="m77.582 34.891 47.529-17.836.917.206-47.553 17.813-.893-.183Z" stroke="#fff" stroke-miterlimit="10"/><path d="m78.476 35.074 47.552-17.813c1.466.32 2.932.663 4.375 1.074L82.85 36.148a87.247 87.247 0 0 0-4.374-1.075Z" stroke="#fff" stroke-miterlimit="10"/><path d="m82.85 36.148 47.552-17.813a65.33 65.33 0 0 1 4.123 1.235L86.996 37.383a66.22 66.22 0 0 0-4.146-1.235" stroke="#fff" stroke-miterlimit="10"/><path d="m86.996 37.383 47.53-17.813c1.328.434 2.657.914 3.962 1.417L90.89 38.801a81.634 81.634 0 0 0-3.962-1.418" stroke="#fff" stroke-miterlimit="10"/><path d="m90.89 38.8 47.53-17.812a69.107 69.107 0 0 1 3.779 1.555l-47.53 17.813A87.757 87.757 0 0 0 90.89 38.8ZM94.739 40.357l47.529-17.813c1.237.549 2.474 1.12 3.688 1.715L98.404 42.095a76.358 76.358 0 0 0-3.665-1.738Z" stroke="#fff" stroke-miterlimit="10"/><path d="m98.403 42.095 47.552-17.836a88.814 88.814 0 0 1 3.574 1.898l-47.53 17.813c-1.191-.64-2.29-1.28-3.596-1.875Z" stroke="#fff" stroke-miterlimit="10"/><path d="m102 43.97 47.529-17.813c1.214.686 2.405 1.395 3.573 2.103l-47.529 17.836c-1.191-.731-2.29-1.44-3.573-2.126Z" stroke="#fff" stroke-miterlimit="10"/><path d="m105.572 46.096 47.53-17.836c1.191.755 2.29 1.532 3.527 2.287l-47.415 17.859c-1.168-.8-2.29-1.578-3.527-2.287" stroke="#fff" stroke-miterlimit="10"/><path d="m109.215 48.405 47.529-17.813c1.222.854 2.413 1.723 3.574 2.607l-47.53 17.813a154.082 154.082 0 0 0-3.573-2.607Z" stroke="#fff" stroke-miterlimit="10"/><path d="m112.674 51.011 47.529-17.813c1.252.991 2.489 1.997 3.711 3.019l-47.53 17.813a176.735 176.735 0 0 0-3.71-3.019Z" stroke="#fff" stroke-miterlimit="10"/><path d="m116.384 54.03 47.529-17.813a79.542 79.542 0 0 1 3.872 3.499l-47.53 17.836c-1.259-1.212-2.565-2.287-3.871-3.522" stroke="#fff" stroke-miterlimit="10"/><path d="m120.255 57.552 47.529-17.836a94.222 94.222 0 0 1 4.215 4.322l-47.53 17.927a93.454 93.454 0 0 0-4.214-4.299" stroke="#fff" stroke-miterlimit="10"/><path d="m124.469 61.964 47.53-17.813a91.54 91.54 0 0 1 5.153 6.106L129.623 68.07a99.653 99.653 0 0 0-5.154-6.106Z" stroke="#fff" stroke-miterlimit="10"/><path d="m129.623 67.956 47.53-17.813a107.609 107.609 0 0 1 16.194 29.727L145.864 97.59a108.539 108.539 0 0 0-16.195-29.726" stroke="#fff" stroke-miterlimit="10"/><path d="m145.864 97.59 47.529-17.812a108.285 108.285 0 0 1 2.703 8.369l-47.529 17.813a119.32 119.32 0 0 0-2.703-8.37Z" stroke="#fff" stroke-miterlimit="10"/><path d="m148.52 105.96 47.53-17.813a104.343 104.343 0 0 1 1.764 6.997l-47.53 17.813a156.01 156.01 0 0 0-1.764-6.997ZM150.285 112.958l47.53-17.813c.458 2.104.893 4.23 1.259 6.403l-47.552 17.813c-.366-2.287-.779-4.299-1.237-6.403Z" stroke="#fff" stroke-miterlimit="10"/><path d="m151.522 119.361 47.552-17.814c.321 1.967.619 3.979.871 5.992l-47.552 17.835a121.915 121.915 0 0 0-.871-6.013ZM152.392 125.375l47.553-17.836c.229 1.943.435 3.887.572 5.854l-47.529 17.813c-.161-1.967-.344-3.91-.596-5.831Z" stroke="#fff" stroke-miterlimit="10"/><path d="m152.987 131.205 47.53-17.813c.16 1.921.274 3.841.343 5.808l-47.529 17.813c0-1.944-.183-3.887-.344-5.808" stroke="#fff" stroke-miterlimit="10"/><path d="m153.331 137.013 47.507-17.882v5.625l-47.53 17.813v-5.625" stroke="#fff" stroke-miterlimit="10"/><path d="m77.582 34.891 47.529-17.836c44.414 9.147 75.956 52.365 75.841 107.77l-47.529 17.814c.092-55.383-31.427-98.624-75.841-107.748Z" stroke="#fff" stroke-miterlimit="10"/><path opacity=".8" d="M182.748 39.069C149.491 8.947 115.397-5.695 91.134 2.044l-45.807 15.06c63.753-4.517 88.058 23.22 100.399 33.26l37.022-11.295Z" fill="url(#a)"/></g><defs><linearGradient id="a" x1="111.359" y1="1.495" x2="111.487" y2="62.982" gradientUnits="userSpaceOnUse"><stop stop-color="#39AADE"/><stop offset="1" stop-color="#3988DE"/></linearGradient></defs></svg>