<svg viewBox="0 0 1073 507" fill="none" xmlns="http://www.w3.org/2000/svg"><g opacity=".3" stroke="#fff" stroke-miterlimit="10"><path d="m943.773 369.74 36.65-28.499-.188 90.049-36.65 28.53.188-90.08ZM855.858 240.217l36.649-28.53v2.9l-36.649 28.499v-2.869ZM855.92 243.086l36.65-28.499c0 1.652-.001 3.118.281 4.895l-36.649 28.499c0-1.621-.25-3.118-.282-4.895ZM856.202 247.981l36.649-28.499c0 1.591.313 3.118.564 4.709l-36.649 28.498a58.214 58.214 0 0 1-.564-4.708Z"/><path d="m856.766 252.689 36.649-28.499c.219 1.559.502 3.118.815 4.615l-36.682 28.499a83.957 83.957 0 0 1-.813-4.615"/><path d="m857.548 257.305 36.65-28.499c.344 1.559.72 3.118 1.158 4.614l-36.649 28.499c-.438-1.497-.814-3.118-1.159-4.614ZM858.737 261.918l36.649-28.499c.47 1.653 1.002 3.118 1.565 4.833l-36.649 28.499c-.564-1.59-1.096-3.118-1.565-4.833Z"/><path d="m860.302 266.751 36.649-28.499a74.41 74.41 0 0 0 2.254 5.363l-36.649 28.499a74.15 74.15 0 0 1-2.254-5.363ZM862.556 272.116l36.649-28.499a61.595 61.595 0 0 0 4.351 7.67l-36.618 28.499a61.343 61.343 0 0 1-4.351-7.67"/><path d="m866.937 279.786 36.649-28.499a57.469 57.469 0 0 0 7.198 8.762l-36.649 28.499a57.469 57.469 0 0 1-7.198-8.762"/><path d="m874.104 288.547 36.65-28.499a58.009 58.009 0 0 0 5.978 5.113l-36.649 28.499a54.963 54.963 0 0 1-5.979-5.113M880.083 293.662l36.649-28.499a56.24 56.24 0 0 0 4.256 2.868l-36.649 28.499a48.435 48.435 0 0 1-4.256-2.868M884.339 296.53l36.649-28.499a38.502 38.502 0 0 0 3.694 2.058L888 298.588a42.485 42.485 0 0 1-3.661-2.058M888 298.588l36.682-28.499a44.24 44.24 0 0 0 3.473 1.653l-36.649 28.499a50.995 50.995 0 0 1-3.506-1.653Z"/><path d="m891.506 300.239 36.65-28.499c1.126.499 2.285.936 3.443 1.372l-36.494 28.499c-1.158-.436-2.316-.873-3.443-1.372M895.105 301.612l36.649-28.499c1.169.395 2.326.769 3.474 1.123l-36.649 28.499a52.023 52.023 0 0 1-3.474-1.123Z"/><path d="m898.423 302.733 36.649-28.499c1.189.333 2.379.645 3.568.936l-36.649 28.499a56.508 56.508 0 0 1-3.568-.936M901.991 303.671l36.65-28.499c1.22.28 2.472.53 3.724.748l-36.65 28.499a72.12 72.12 0 0 1-3.724-.748Z"/><path d="m905.715 304.417 36.65-28.499c1.272.229 2.586.416 3.942.561l-36.649 28.624a116.525 116.525 0 0 1-3.943-.561M909.658 305.105l36.649-28.499h.815l-36.649 28.499h-.815Z"/><path d="m855.858 240.217 36.649-28.53c0 36.481 21.909 61.613 54.615 64.887l-36.649 28.53c-32.612-3.305-54.678-28.437-54.615-64.887Z"/><path d="m855.921 219.419 36.649-28.499-.063 20.797-36.649 28.499.063-20.797ZM789.038 212.745l36.649-28.499 66.883 6.673-36.65 28.499-66.882-6.673ZM910.473 305.101l36.649-28.499c1.064 0 2.159.187 3.13.219l-36.682 28.53-3.13-.25M913.665 305.321l36.68-28.53h3.882l-36.65 28.499h-3.912"/><path d="m917.577 305.383 36.649-28.499c1.284 0 2.566 0 3.818-.156l-36.649 28.374c-1.252 0-2.535.156-3.818.156"/><path d="m921.395 305.102 36.649-28.499c1.283 0 2.535-.218 3.787-.405l-36.65 28.499a50.422 50.422 0 0 1-3.786.405ZM925.182 304.822l36.649-28.499a49.198 49.198 0 0 0 3.849-.686l-36.649 28.499a49.282 49.282 0 0 1-3.849.686Z"/><path d="m929.031 304.135 36.649-28.499a42.575 42.575 0 0 0 4.132-1.122l-36.649 28.499a46.446 46.446 0 0 1-4.132 1.122Z"/><path d="m933.164 303.012 36.649-28.499a48.697 48.697 0 0 0 4.788-1.808l-36.65 28.499a48.679 48.679 0 0 1-4.787 1.808M937.951 301.205l36.649-28.499a43.662 43.662 0 0 0 6.26-3.399l-36.649 28.499a43.715 43.715 0 0 1-6.26 3.399Z"/><path d="m910.472 305.101 36.649-28.499a50.793 50.793 0 0 0 33.645-7.265l-36.649 28.499a50.794 50.794 0 0 1-33.645 7.265Z"/><path d="m944.117 297.806 36.65-28.499 46.723 52.633-36.646 28.498-46.727-52.632ZM910.473 305.103a50.799 50.799 0 0 0 33.645-7.265l46.726 52.632a102.861 102.861 0 0 1-46.946 19.301l-.188 90.049-66.819-6.673v-90.08c-52.893-18.708-88.041-67.349-87.916-130.365v-19.924l66.853 6.672v20.798c-.032 36.418 22.033 61.55 54.645 64.855ZM1032.16 256.991l36.65-28.499v4.116l-36.65 28.499v-4.116Z"/><path d="m1032.09 261.108 36.65-28.499c0 3.118-.25 6.236-.5 9.073l-36.65 28.499c.25-2.962.41-5.986.5-9.073Z"/><path d="m1031.59 270.181 36.65-28.499c-.25 2.931-.59 5.8-1 8.606l-36.65 28.499c.41-2.807.75-5.675 1-8.606Z"/><path d="m1030.59 278.786 36.65-28.499a106.47 106.47 0 0 1-1.44 8.232l-36.65 28.499a106.47 106.47 0 0 0 1.44-8.232"/><path d="m1029.15 287.017 36.65-28.498c-.56 2.743-1.19 5.425-1.91 8.013l-36.65 28.53a123.52 123.52 0 0 0 1.91-8.045ZM1027.24 295.063l36.65-28.53c-.75 2.744-1.59 5.394-2.5 7.982l-36.65 28.499c.91-2.588 1.75-5.238 2.5-7.951"/><path d="m1024.74 303.013 36.65-28.499c-.97 2.775-2.04 5.457-3.13 8.076l-36.65 28.499a86.544 86.544 0 0 0 3.13-8.076Z"/><path d="m1021.55 311.088 36.65-28.499c-1.29 2.931-2.7 5.768-4.2 8.512l-36.65 28.499a107.29 107.29 0 0 0 4.2-8.512ZM1017.35 319.601l36.65-28.498c-1.9 3.367-3.99 6.626-6.26 9.759l-36.65 28.499a97.508 97.508 0 0 0 6.26-9.76M1011.25 329.361l36.65-28.499a94.24 94.24 0 0 1-9.67 11.599l-36.71 28.499a94.24 94.24 0 0 0 9.67-11.599"/><path d="m1032.16 256.991 36.65-28.499c0 35.483-11.3 64.232-30.58 83.969l-36.71 28.499c19.34-19.737 30.57-48.33 30.64-83.969Z"/><path d="m965.462 160.736 66.848 6.673-.15 89.581c0 35.483-11.3 64.232-30.58 83.969l-46.947-53.007c6.885-9.136 10.767-21.608 10.798-36.824l.031-90.392Z"/><path d="m1032.31 167.409 36.65-28.499-.15 89.581-36.65 28.499.15-89.581Z"/><path d="m965.462 160.737 36.678-28.499 66.82 6.673-36.65 28.499-66.848-6.673ZM856.046 149.791l-.126 54.472-66.82-6.672.094-54.472 66.852 6.672Z"/><path d="m856.046 149.791 36.649-28.499-.125 54.472-36.65 28.499.126-54.472Z"/><path d="m789.194 143.119 36.65-28.499 66.851 6.673-36.649 28.499-66.852-6.673Z"/></g><g opacity=".3" stroke="#fff" stroke-miterlimit="10"><path d="m642.98 458.069.25-141.663 51.956-13.232-.282 141.694-51.924 13.201Z"/><path d="m642.98 458.069-74.4-22.27.25-141.663 74.4 22.27-.25 141.663ZM643.231 316.406l-74.401-22.27 51.956-13.201 74.4 22.239-51.955 13.232Z"/><path d="m643.261 301.312-74.401-22.27.063-22.394 74.369 22.27-.031 22.394ZM643.292 278.915l-74.369-22.269v-1.522l74.4 22.269v1.522"/><path d="m643.293 277.395-74.402-22.27c-.281-25.935-9.566-42.459-24.352-46.9l74.401 22.27c14.787 4.441 24.071 20.965 24.353 46.9Z"/><path d="m544.539 208.225 74.401 22.27c15.068 4.534 24.415 21.741 24.353 48.422l-74.37-22.27c.031-26.836-9.285-43.888-24.384-48.422ZM600.996 165.456l-74.4-22.239a91.473 91.473 0 0 1 13.536-2.423l74.4 22.27a95.37 95.37 0 0 0-13.536 2.392M614.532 163.064l-74.4-22.27a75.752 75.752 0 0 1 12.973-.186l74.4 22.269a75.854 75.854 0 0 0-12.973.187M627.505 162.846l-74.4-22.27c3.594.266 7.158.827 10.659 1.677l74.402 22.27a66.22 66.22 0 0 0-10.661-1.677Z"/><path d="m638.165 164.553-74.401-22.269a37.64 37.64 0 0 1 3.126.869l74.401 22.27a80.897 80.897 0 0 0-3.126-.87Z"/><path d="m566.984 143.155 74.401 22.27a75.497 75.497 0 0 0-40.389 0l-74.4-22.238a75.109 75.109 0 0 1 40.388-.032ZM505.964 492.887l-74.401-22.269.344-178.314 74.369 22.239-.312 178.344ZM573.581 249.256l-74.401-22.27-36.231-38.514 74.4 22.27 36.232 38.514Z"/><path d="M600.996 165.457c55.207-14.008 94.408 25.873 94.251 101.068v21.587l-51.954 13.2v-22.394c0-36.34-17.069-54.789-42.422-48.36a49.714 49.714 0 0 0-27.291 18.636l-36.23-38.514c16.38-22.674 38.325-38.762 63.646-45.223Z"/><path d="m537.349 210.742-74.401-22.27a50.842 50.842 0 0 1 2.407-3.106l74.369 22.27c-.812 1.056-1.593 2.143-2.375 3.106ZM539.725 207.511l-74.37-22.27c14.169-19.248 34.108-33.546 56.958-40.844l74.4 22.27c-22.861 7.292-42.811 21.59-56.988 40.844"/><path d="m596.713 166.668-74.401-22.27a72.641 72.641 0 0 1 4.284-1.18l74.4 22.238a96.609 96.609 0 0 0-4.283 1.212Z"/><path d="m537.349 210.741-74.401-22.269c16.38-22.736 38.358-38.825 63.648-45.254l74.4 22.238c-25.321 6.461-47.266 22.55-63.647 45.285ZM506.307 314.573l-74.4-22.269a204.505 204.505 0 0 1 1.094-21.214l74.4 22.27a204.486 204.486 0 0 0-1.094 21.213M507.402 293.297l-74.401-22.27c.626-6.212 1.531-11.958 2.656-17.735l74.402 22.27a179.768 179.768 0 0 0-2.657 17.735Z"/><path d="m510.059 275.625-74.402-22.27a184.414 184.414 0 0 1 3.564-14.847l74.37 22.27a198.084 198.084 0 0 0-3.532 14.847Z"/><path d="m513.591 260.778-74.37-22.269a176.005 176.005 0 0 1 4.346-13.356l74.4 22.27c-1.594 4.317-3.126 8.79-4.376 13.355M517.967 247.423l-74.4-22.27a159.659 159.659 0 0 1 5.345-12.703l74.401 22.27c-1.939 4.1-3.72 8.324-5.346 12.703ZM523.312 234.719l-74.4-22.27a165.034 165.034 0 0 1 5.814-11.212l74.402 22.269a158.296 158.296 0 0 0-5.816 11.213Z"/><path d="m506.307 314.573-74.4-22.269a184.198 184.198 0 0 1 22.82-91.067l74.401 22.269a183.809 183.809 0 0 0-22.821 91.067Z"/><path d="M506.307 314.573a183.798 183.798 0 0 1 22.821-91.067l36.669 38.98a93.768 93.768 0 0 0-7.565 38.048l-.313 179.152-51.956 13.201.344-178.314Z"/></g><g opacity=".3" stroke="#fff" stroke-miterlimit="10"><path d="m40.832 235.285 39.204-28.238 46.092 52.361-39.235 28.238-46.061-52.361ZM86.925 287.676l39.203-28.237a1114.111 1114.111 0 0 0-3.131 3.833L83.793 291.51a48.484 48.484 0 0 1 3.132-3.834ZM83.919 291.478l39.203-28.238a80.45 80.45 0 0 0-4.697 7.294l-39.203 28.237a76.473 76.473 0 0 1 4.697-7.293"/><path d="m79.222 298.77 39.204-28.237c-1.128 2.026-2.192 4.083-3.132 6.233L76.06 305.004a165.326 165.326 0 0 1 3.131-6.234"/><path d="m76.028 304.973 39.235-28.238a71.69 71.69 0 0 0-2.38 5.735l-39.204 28.207a105.26 105.26 0 0 1 2.349-5.704M73.68 310.677l39.203-28.207a66.044 66.044 0 0 0-1.784 5.424l-39.234 28.237a92.74 92.74 0 0 1 1.815-5.454"/><path d="m71.865 316.131 39.234-28.237a72.647 72.647 0 0 0-1.378 5.298l-39.203 28.207a72.092 72.092 0 0 1 1.347-5.268Z"/><path d="m70.517 321.399 39.204-28.206a69.115 69.115 0 0 0-1.033 5.205l-39.204 28.206a72.825 72.825 0 0 1 1.034-5.205Z"/><path d="m69.484 326.604 39.203-28.206a91.48 91.48 0 0 0-.689 5.205l-39.234 28.05c.188-1.745.438-3.491.72-5.205M68.764 331.809l39.234-28.051c-.188 1.714-.344 3.46-.407 5.236l-39.234 28.238c0-1.777.25-3.522.407-5.267"/><path d="m68.357 337.075 39.234-28.238V314.229l-39.203 28.207V337.075"/><path d="m68.262 342.437 39.204-28.207c0 1.808 0 3.647.188 5.455L68.45 347.922c0-1.839-.188-3.647-.188-5.485Z"/><path d="m68.45 347.922 39.204-28.237c0 1.901.282 3.771.501 5.61l-39.203 28.237c-.22-1.87-.377-3.74-.502-5.61Z"/><path d="m68.952 353.532 39.204-28.237c.25 1.963.531 3.895.876 5.828L69.828 359.36a118.745 118.745 0 0 1-.876-5.828Z"/><path d="m69.828 359.36 39.204-28.237c.375 2.078.813 4.155 1.314 6.233l-39.234 28.238a91.192 91.192 0 0 1-1.315-6.234"/><path d="m71.112 365.593 39.204-28.206a125.763 125.763 0 0 0 1.91 6.701l-39.204 28.237a97.275 97.275 0 0 1-1.91-6.732Z"/><path d="m73.054 372.232 39.203-28.237a107.953 107.953 0 0 0 2.818 7.698L75.872 379.93a113.108 113.108 0 0 1-2.818-7.698Z"/><path d="m75.872 379.93 39.203-28.238a103.324 103.324 0 0 0 4.665 9.756l-39.234 28.206c-1.691-3.117-3.131-6.421-4.634-9.724Z"/><path d="m80.506 389.654 39.234-28.207a100.194 100.194 0 0 0 21.45 27.147l-39.235 28.05a100.83 100.83 0 0 1-21.45-27.146M101.956 416.802l39.234-28.051a94.572 94.572 0 0 0 7.86 6.234l-39.204 28.237a95.55 95.55 0 0 1-7.89-6.233"/><path d="m109.847 423.098 39.203-28.238a103.674 103.674 0 0 0 6.263 4.145l-39.204 28.051a90.045 90.045 0 0 1-6.262-4.114M116.109 427.212l39.204-28.051a229.296 229.296 0 0 0 5.542 3.117l-39.204 28.051a61.184 61.184 0 0 1-5.542-3.117Z"/><path d="m121.651 430.265 39.204-28.051c1.691.842 3.381 1.652 5.134 2.4l-39.203 28.238a70.674 70.674 0 0 1-5.135-2.431"/><path d="m126.786 432.698 39.203-28.238c1.629.717 3.133 1.34 4.917 1.964l-39.203 28.05a84.904 84.904 0 0 1-4.917-1.932M131.703 434.629l39.203-28.051c1.566.561 3.131 1.06 4.728 1.559l-39.204 28.05c-1.597-.467-3.13-.997-4.727-1.558Z"/><path d="m136.43 436.187 39.204-28.05c1.565.467 3.132.872 4.729 1.246l-39.204 28.238c-1.597-.374-3.132-.811-4.729-1.278"/><path d="m141.159 437.465 39.204-28.238c1.565.374 3.131.717 4.759.998l-39.203 28.05a91.494 91.494 0 0 1-4.76-.966M145.919 438.431l39.204-28.051c1.597.281 3.131.53 4.822.717l-39.204 28.207c-1.628-.187-3.131-.437-4.822-.717"/><path d="m150.741 439.149 39.204-28.206h1.001l-39.203 28.237h-1.002"/><path d="m86.924 287.676 39.204-28.237a83.901 83.901 0 0 0-18.788 54.012c0 48.341 35.854 92.505 83.48 97.616l-39.203 28.237c-47.627-5.111-83.575-49.275-83.48-97.615a83.905 83.905 0 0 1 18.787-54.013ZM151.742 439.272l39.203-28.237c1.315 0 2.631.249 3.914.343l-39.203 28.237c-1.284 0-2.599-.187-3.914-.343Z"/><path d="m155.656 439.615 39.203-28.237h4.948l-39.236 28.05h-4.915M160.572 439.74l39.236-28.05h5.01l-39.204 28.05h-5.042Z"/><path d="m165.614 439.584 39.203-28.05c1.754 0 3.507-.281 5.229-.53l-39.203 28.238c-1.722.218-3.476.405-5.229.498"/><path d="m170.843 439.087 39.203-28.237a83.455 83.455 0 0 0 5.573-.936l-39.234 28.051a64.157 64.157 0 0 1-5.542.966M176.385 438.119l39.235-28.051a87.992 87.992 0 0 0 6.262-1.62l-39.234 28.237a65.68 65.68 0 0 1-6.263 1.589"/><path d="m182.616 436.531 39.235-28.238a70.186 70.186 0 0 0 7.546-2.774L190.1 433.725a75.561 75.561 0 0 1-7.578 2.806"/><path d="m190.1 433.725 39.204-28.206a73.413 73.413 0 0 0 13.214-7.511l-39.203 28.206a69.788 69.788 0 0 1-13.215 7.511"/><path d="m242.611 398.008-39.203 28.206a73.66 73.66 0 0 1-51.666 13.059l39.203-28.238a73.627 73.627 0 0 0 51.666-13.027ZM100.357 275.209l39.236-28.238a69.095 69.095 0 0 0-3.383 2.587l-39.203 28.05a86.52 86.52 0 0 1 3.35-2.555"/><path d="m100.357 275.209 39.236-28.238a69.095 69.095 0 0 0-3.383 2.587l-39.203 28.05c1.096-.841 2.285-1.714 3.35-2.399ZM151.742 439.274a73.427 73.427 0 0 0 29.021-2.244 73.182 73.182 0 0 0 25.839-13.34l45.685 51.925a134.54 134.54 0 0 1-47.388 24.617 134.93 134.93 0 0 1-53.282 4.275C68.795 495.593 1.316 419.171 1.567 334.365c-.495-36.906 13.608-72.526 39.266-99.174l46.091 52.361a83.904 83.904 0 0 0-18.788 54.013c.032 48.433 35.979 92.597 83.606 97.709Z"/><path d="m206.602 423.783 39.204-28.238 45.685 51.925-39.204 28.206-45.685-51.893Z"/><path d="m252.287 475.708 39.204-28.237c-2.036 1.683-4.134 3.272-6.263 4.831l-39.204 28.05a103.573 103.573 0 0 0 6.263-4.8"/><path d="m285.197 452.301-39.203 28.051a104.28 104.28 0 0 0 6.262-4.8l39.204-28.238c-2.004 1.839-4.102 3.429-6.263 4.987ZM57.773 220.79l39.202-28.238a131.162 131.162 0 0 1 24.393-13.838l-39.204 28.051a130.234 130.234 0 0 0-24.391 13.869M82.165 206.922l39.203-28.051a135.759 135.759 0 0 1 13.966-5.142l-39.172 28.05a130.674 130.674 0 0 0-13.965 5.143"/><path d="m96.162 201.78 39.203-28.207c3.789-1.153 7.61-2.15 11.524-3.116l-39.204 28.237c-3.914.842-7.766 1.808-11.523 2.961M107.653 198.817l39.204-28.238c3.35-.685 6.764-1.278 10.209-1.745l-39.204 28.237a122.649 122.649 0 0 0-10.209 1.746ZM117.862 197.072l39.203-28.237c3.132-.406 6.263-.717 9.394-.935l-38.985 28.237c-3.194.187-6.325.499-9.394.935M127.475 196.138l39.234-28.238c2.975-.187 6.013-.28 9.082-.28l-39.236 28.237c-3.131 0-6.074 0-9.08.281Z"/><path d="m136.43 195.857 39.235-28.237c2.913 0 5.856 0 8.8.28l-39.204 28.206a143.235 143.235 0 0 0-8.831-.249Z"/><path d="m145.26 196.106 39.204-28.206c2.317.124 4.633.311 6.95.561l-39.203 28.237a185.789 185.789 0 0 0-6.951-.592Z"/><path d="m57.773 220.792 39.202-28.238c27.363-19.465 61.044-28.058 94.44-24.092L152.211 196.7c-33.396-3.966-67.075 4.626-94.438 24.092Z"/><path d="M152.211 196.699c82.791 8.914 150.302 85.305 150.02 170.111.488 36.99-13.673 72.684-39.422 99.361l-46.03-52.361a83.91 83.91 0 0 0 18.787-54.169c0-48.34-35.885-92.504-83.48-97.615a73.554 73.554 0 0 0-29.133 2.212 73.362 73.362 0 0 0-25.946 13.371l-45.654-51.924a134.453 134.453 0 0 1 47.464-24.713 134.836 134.836 0 0 1 53.394-4.273Z"/><path d="m152.211 196.7 39.204-28.237 1.753.218-39.203 28.206-1.754-.187Z"/><path d="m153.965 196.888 39.203-28.207c2.881.343 5.763.78 8.581 1.278l-39.204 28.051a157.774 157.774 0 0 0-8.58-1.278M162.545 198.166l39.204-28.051c2.88.499 5.73 1.091 8.548 1.746l-39.236 28.237a186.565 186.565 0 0 0-8.516-1.777"/><path d="m171.062 199.941 39.235-28.237c2.85.686 5.698 1.465 8.516 2.306l-39.203 28.207a156.496 156.496 0 0 0-8.548-2.276Z"/><path d="m179.609 202.217 39.204-28.206c2.912.841 5.762 1.807 8.611 2.805l-39.204 28.237a164.158 164.158 0 0 0-8.611-2.836"/><path d="m188.221 205.052 39.203-28.237c3.132 1.122 6.043 2.306 9.018 3.584l-39.204 28.238a139.01 139.01 0 0 0-9.017-3.585ZM197.238 208.638l39.204-28.238c3.131 1.372 6.262 2.868 9.394 4.426l-39.204 28.237c-3.131-1.589-6.262-3.116-9.394-4.425ZM206.695 213.063l39.203-28.238a181.846 181.846 0 0 1 10.24 5.673l-39.204 28.237c-3.35-2.026-6.763-3.896-10.239-5.672ZM216.934 218.736l39.204-28.237a175.5 175.5 0 0 1 11.554 7.573l-39.204 28.238a175.25 175.25 0 0 0-11.554-7.574Z"/><path d="m228.489 226.309 39.203-28.237a169.196 169.196 0 0 1 14.843 11.906l-39.203 28.206a180.316 180.316 0 0 0-14.843-11.875"/><path d="m243.332 238.184 39.203-28.206a179.182 179.182 0 0 1 38.014 47.935l-39.203 28.206a180.322 180.322 0 0 0-38.014-47.935"/><path d="m281.345 286.119 39.204-28.206a178.859 178.859 0 0 1 8.172 17.11l-39.204 28.238a190.485 190.485 0 0 0-8.172-17.111M289.518 303.261l39.203-28.206a170.634 170.634 0 0 1 4.76 13.059l-39.204 28.206c-1.409-4.394-3.131-8.758-4.759-13.059Z"/><path d="m294.277 316.288 39.204-28.206c1.19 3.678 2.255 7.387 3.131 11.158l-39.203 28.206c-.908-3.74-1.973-7.48-3.132-11.158Z"/><path d="m297.439 327.446 39.204-28.206a158.456 158.456 0 0 1 2.192 10.161l-39.141 28.143a159.505 159.505 0 0 0-2.192-10.191M299.695 337.545l39.14-28.051c.564 3.117 1.065 6.234 1.441 9.6l-39.204 28.237c-.407-3.116-.877-6.42-1.44-9.599"/><path d="M301.072 347.237 340.275 319c.376 3.116.658 6.233.846 9.35l-39.204 28.206a156.942 156.942 0 0 0-.845-9.35"/><path d="m301.917 356.495 39.204-28.207c.188 3.117.282 5.984.314 8.977l-39.204 28.331c0-3.117 0-6.016-.314-9.008M302.231 365.596l39.204-28.238v1.341c0 2.524-.001 5.018-.188 7.511l-39.204 28.05c0-2.462.188-4.986.188-7.511v-1.153ZM302.043 374.321l39.203-28.05a195.25 195.25 0 0 1-.657 8.633l-39.236 28.206c.313-2.836.533-5.703.69-8.633"/><path d="m301.353 382.956 39.236-28.206a152.06 152.06 0 0 1-1.19 8.571l-39.203 28.237c.469-2.836.875-5.703 1.157-8.602"/><path d="m300.196 391.558 39.204-28.237a150.73 150.73 0 0 1-1.661 8.633l-39.234 28.207a149.037 149.037 0 0 0 1.691-8.603"/><path d="m298.505 400.16 39.234-28.207c-.689 3.117-1.471 5.922-2.317 8.821l-39.203 28.05c.845-2.898 1.628-5.828 2.286-8.82M296.219 408.979l39.204-28.05c-.908 3.116-1.91 6.233-3.132 9.101l-39.235 28.237a287.153 287.153 0 0 0 3.131-9.132"/><path d="m293.181 418.112 39.236-28.238a140.552 140.552 0 0 1-4.009 9.694l-39.204 28.362c1.44-3.117 2.756-6.234 3.977-9.662"/><path d="m289.204 427.93 39.204-28.207c-1.691 3.647-3.507 7.231-5.48 10.691l-39.203 28.05a137.504 137.504 0 0 0 5.479-10.69"/><path d="m283.725 438.464 39.203-28.051a137.156 137.156 0 0 1-8.204 12.685l-39.203 28.207a133.38 133.38 0 0 0 8.204-12.686"/><path d="m275.52 451.149 39.204-28.206a133.107 133.107 0 0 1-12.712 14.992l-39.203 28.237a136.2 136.2 0 0 0 12.711-15.023Z"/><path d="m152.211 196.7 39.204-28.237c82.822 8.914 150.301 85.304 150.019 170.141.494 36.982-13.669 72.668-39.422 99.33l-39.203 28.238c25.748-26.677 39.91-62.371 39.422-99.361.156-84.806-67.229-161.197-150.02-170.111Z"/></g></svg>