<svg width="100%" height="100%" viewBox="0 0 1024 512" fill="none" xmlns="http://www.w3.org/2000/svg">

    
    <g clip-path="url(#clip1_534_7527)">
      <path d="M1231.06 380.046L944.912 393.777L632.743 383.118" stroke="white" stroke-width="0.944785" stroke-miterlimit="10" />
      <path d="M1208.63 353.14L1170.41 336.358V322.956L835.38 122.914L741.741 111.363L673.037 206.157L675.976 217.701L676.846 252.025L633.078 305.085L636.346 316.965L632.743 383.118" stroke="white" stroke-width="0.944785" stroke-miterlimit="10" />
      <path d="M835.28 123.039L833.026 215.59" stroke="white" stroke-width="0.944785" stroke-miterlimit="10" />
      <path d="M824.775 128.35L742.289 116.703" stroke="white" stroke-width="0.944785" stroke-miterlimit="10" />
      <path d="M742.289 116.703L682.916 201.091" stroke="white" stroke-width="0.944785" stroke-miterlimit="10" />
      <path d="M835.38 122.914L673.037 206.157" stroke="white" stroke-width="0.944785" stroke-miterlimit="10" />
      <path d="M743.433 127.405L805.251 138.366" stroke="white" stroke-width="0.944785" stroke-miterlimit="10" />
      <path d="M743.433 127.405L693.246 195.799" stroke="white" stroke-width="0.944785" stroke-miterlimit="10" />
      <path d="M675.976 217.708L834.763 142.315L1170.41 328.948" stroke="white" stroke-width="0.944785" stroke-miterlimit="10" />
      <path d="M680.223 236.663L828.522 176.988V152.33L680.223 221.465V236.663Z" stroke="white" stroke-width="0.944785" stroke-miterlimit="10" />
      <path d="M1170.41 327.536L834.989 128.92L674.229 210.202" stroke="white" stroke-width="0.944785" stroke-miterlimit="10" />
      <path d="M839.627 152.33V176.68L1168.48 335.213V328.948L839.627 152.33Z" stroke="white" stroke-width="0.944785" stroke-miterlimit="10" />
      <path d="M860.323 186.654V163.442" stroke="white" stroke-width="0.944785" stroke-miterlimit="10" />
      <path d="M890.615 201.262V179.717" stroke="white" stroke-width="0.944785" stroke-miterlimit="10" />
      <path d="M917.106 214.034V193.941" stroke="white" stroke-width="0.944785" stroke-miterlimit="10" />
      <path d="M940.48 225.297V206.493" stroke="white" stroke-width="0.944785" stroke-miterlimit="10" />
      <path d="M961.244 235.312V217.647" stroke="white" stroke-width="0.944785" stroke-miterlimit="10" />
      <path d="M979.822 244.265V227.628" stroke="white" stroke-width="0.944785" stroke-miterlimit="10" />
      <path d="M996.538 252.327V236.601" stroke="white" stroke-width="0.944785" stroke-miterlimit="10" />
      <path d="M1011.66 259.614V244.724" stroke="white" stroke-width="0.944785" stroke-miterlimit="10" />
      <path d="M896.137 243.772L942.522 231.926L1170.41 339.141" stroke="white" stroke-width="0.944785" stroke-miterlimit="10" />
      <path d="M900.713 255.295L941.377 245.657L1169.54 340.608" stroke="white" stroke-width="0.944785" stroke-miterlimit="10" />
      <path d="M898.261 248.92L941.377 238.788L1169.95 339.834" stroke="white" stroke-width="0.944785" stroke-miterlimit="10" />
      <path d="M940.48 262.815L1173.35 346.819V373.733L940.48 354.339V262.815Z" stroke="white" stroke-width="0.944785" stroke-miterlimit="10" />
      <path d="M760.401 358.302L934.575 355.1V262.815L761.997 295.645L760.401 358.302Z" stroke="white" stroke-width="0.944785" stroke-miterlimit="10" />
      <path d="M633.976 360.543L705.988 359.282" stroke="white" stroke-width="0.944785" stroke-miterlimit="10" />
      <path d="M636.202 319.577L707.283 306.051" stroke="white" stroke-width="0.944785" stroke-miterlimit="10" />
      <path d="M676.846 252.025L725.464 235.216" stroke="white" stroke-width="0.944785" stroke-miterlimit="10" />
      <path d="M937.493 233.208L833.462 197.876L746.591 227.909" stroke="white" stroke-width="0.944785" stroke-miterlimit="10" />
      <path d="M725.464 240.042L677.141 256.516L634.304 309.541" stroke="white" stroke-width="0.944785" stroke-miterlimit="10" />
      <path d="M927.464 235.772L833.462 203.216L746.591 232.838" stroke="white" stroke-width="0.944785" stroke-miterlimit="10" />
      <path d="M725.464 250.154L674.229 266.408L635.202 312.818" stroke="white" stroke-width="0.944785" stroke-miterlimit="10" />
      <path d="M901.391 242.428L833.462 215.898L746.591 243.456" stroke="white" stroke-width="0.944785" stroke-miterlimit="10" />
      <path d="M746.591 296.529V224.46L725.464 232.255V300.279" stroke="white" stroke-width="0.944785" stroke-miterlimit="10" />
      <path d="M754.209 386.963L757.147 294.651L707.468 303.48L705.296 385.256" stroke="white" stroke-width="0.944785" stroke-miterlimit="10" />
      <path d="M569.492 283.813H569.903V284.223H569.492V283.813Z" stroke="white" stroke-width="0.944785" stroke-miterlimit="10" />
      <path d="M959.936 355.95V269.835" stroke="white" stroke-width="0.944785" stroke-miterlimit="10" />
      <path d="M985.481 358.082V279.049" stroke="white" stroke-width="0.944785" stroke-miterlimit="10" />
      <path d="M1008.58 360.008V287.384" stroke="white" stroke-width="0.944785" stroke-miterlimit="10" />
      <path d="M917.106 355.422V266.14" stroke="white" stroke-width="0.944785" stroke-miterlimit="10" />
      <path d="M875.215 356.19V274.106" stroke="white" stroke-width="0.944785" stroke-miterlimit="10" />
      <path d="M841.168 356.814V280.584" stroke="white" stroke-width="0.944785" stroke-miterlimit="10" />
      <path d="M812.958 357.328V285.952" stroke="white" stroke-width="0.944785" stroke-miterlimit="10" />
      <path d="M789.194 357.767V290.469" stroke="white" stroke-width="0.944785" stroke-miterlimit="10" />
      <path d="M768.91 358.137V294.329" stroke="white" stroke-width="0.944785" stroke-miterlimit="10" />
      <path d="M700.049 359.385V307.429" stroke="white" stroke-width="0.944785" stroke-miterlimit="10" />
      <path d="M690.479 359.556V309.246" stroke="white" stroke-width="0.944785" stroke-miterlimit="10" />
      <path d="M681.833 359.707V310.891" stroke="white" stroke-width="0.944785" stroke-miterlimit="10" />
      <path d="M673.982 359.844V312.385" stroke="white" stroke-width="0.944785" stroke-miterlimit="10" />
      <path d="M666.831 359.967V313.75" stroke="white" stroke-width="0.944785" stroke-miterlimit="10" />
      <path d="M660.275 360.084V314.997" stroke="white" stroke-width="0.944785" stroke-miterlimit="10" />
      <path d="M654.253 360.187V316.142" stroke="white" stroke-width="0.944785" stroke-miterlimit="10" />
      <path d="M648.704 360.283V317.198" stroke="white" stroke-width="0.944785" stroke-miterlimit="10" />
      <path d="M643.566 360.372V318.178" stroke="white" stroke-width="0.944785" stroke-miterlimit="10" />
      <path d="M638.805 360.461V319.083" stroke="white" stroke-width="0.944785" stroke-miterlimit="10" />
      <path d="M633.551 370.024L705.707 369.716" stroke="white" stroke-width="0.944785" stroke-miterlimit="10" />
      <path d="M1177.16 377.003L938.493 368.715L754.763 369.503" stroke="white" stroke-width="0.944785" stroke-miterlimit="10" />
      <path d="M1177.16 379.286L937.493 380.046L754.537 376.619" stroke="white" stroke-width="0.944785" stroke-miterlimit="10" />
      <path d="M633.715 374.357L705.55 375.7" stroke="white" stroke-width="0.944785" stroke-miterlimit="10" />
      <path d="M1250.98 387.571L941.231 405.573L638.54 388.767" stroke="white" stroke-width="0.944785" stroke-miterlimit="10" />
    </g>
    <path d="M-13.8403 293.603C-13.7181 293.244 49.0961 202.859 49.0961 202.859L55.1109 205.395L-1.92853 293.603H-13.8403Z" stroke="white" stroke-linecap="round" stroke-linejoin="round" />
    <path d="M-9.98901 293.608L51.8189 204.007" stroke="white" stroke-linecap="round" stroke-linejoin="round" />
    <path d="M51.1465 203.407L68.1374 179.781V177L72.2288 179.177L70.0656 180.509L54.1985 204.696" stroke="white" stroke-linecap="round" stroke-linejoin="round" />
    <path d="M-38.6331 270.029C-38.6331 270.029 11.7377 253.723 55.8446 196.834" stroke="white" stroke-linecap="round" stroke-linejoin="round" />
    <path d="M-38.6331 270.029C-38.6331 270.029 -30.8078 284.31 55.8446 196.834" stroke="white" stroke-linecap="round" stroke-linejoin="round" />
    <path d="M-38.6331 270.029C-38.6331 270.029 5.53956 270.029 55.8446 196.834" stroke="white" stroke-linecap="round" stroke-linejoin="round" />
    <path d="M49.7779 213.635C49.6556 213.824 39.1591 217.149 39.1591 217.149L39.8081 229.054L26.5935 235.24V249.808L12.4148 255.664L14.7191 267.857L-0.842247 274.77L3.3902 285.358L-14.0615 293.603" stroke="white" stroke-linecap="round" stroke-linejoin="round" />
    <path d="M68.8711 228.345V206.339" stroke="white" stroke-linecap="round" stroke-linejoin="round" />
    <path d="M66.9524 206.339V228.345" stroke="white" stroke-linecap="round" stroke-linejoin="round" />
    <path d="M68.871 200.805V182.407L66.9524 185.245V200.805" stroke="white" stroke-linecap="round" stroke-linejoin="round" />
    <path d="M67.9165 206.505C69.5293 206.505 70.8368 205.192 70.8368 203.572C70.8368 201.953 69.5293 200.64 67.9165 200.64C66.3036 200.64 64.9961 201.953 64.9961 203.572C64.9961 205.192 66.3036 206.505 67.9165 206.505Z" stroke="white" stroke-linecap="round" stroke-linejoin="round" />
    <path d="M64.8314 230.693H71.0295V228.346H64.8314V230.693Z" stroke="white" stroke-linecap="round" stroke-linejoin="round" />
    <path d="M66.5714 234.413H69.2896V230.692H66.5714V234.413Z" stroke="white" stroke-linecap="round" stroke-linejoin="round" />
    <path d="M62.861 237.61H73V234.413H62.861V237.61Z" stroke="white" stroke-linecap="round" stroke-linejoin="round" />
    <path d="M67.5638 238.38C67.5404 238.247 67.5588 238.109 67.6165 237.986C67.6741 237.864 67.7682 237.762 67.8857 237.695C68.0032 237.629 68.1384 237.6 68.2727 237.614C68.4071 237.627 68.534 237.682 68.636 237.771C69.5765 238.583 70.5735 239.853 70.4465 241.516C70.2113 244.576 65.4192 245.407 64.3047 242.333C64.3047 242.333 66.736 242.361 67.3991 240.59C67.64 239.879 67.6967 239.119 67.5638 238.38V238.38Z" stroke="white" stroke-linecap="round" stroke-linejoin="round" />
    <path d="M357.899 308.976C357.581 308.84 357.256 308.717 356.932 308.593" stroke="white" stroke-linecap="round" stroke-linejoin="round" />
    <path d="M355.364 308.068C354.708 307.871 354.041 307.698 353.367 307.562" stroke="white" stroke-linecap="round" stroke-linejoin="round" />
    <path d="M348.093 307C346.321 306.999 344.553 307.187 342.82 307.562C342.146 307.698 341.478 307.871 340.823 308.068C340.296 308.223 339.776 308.402 339.255 308.593C338.931 308.717 338.606 308.84 338.287 308.976C333.196 311.17 328.816 314.759 325.646 319.336C325.352 319.75 325.033 320.176 324.788 320.608C324.647 320.831 324.506 321.053 324.372 321.275C324.102 321.713 323.845 322.164 323.594 322.621C323.465 322.85 323.343 323.084 323.214 323.319C322.975 323.782 322.742 324.251 322.522 324.733C322.301 325.208 322.087 325.696 321.909 326.19C321.707 326.678 321.511 327.178 321.334 327.684C321.242 327.937 321.15 328.19 321.064 328.45C320.556 329.956 320.147 331.495 319.839 333.056C319.808 333.176 319.784 333.297 319.766 333.42C319.631 334.105 319.514 334.803 319.423 335.507C319.423 335.643 319.38 335.785 319.368 335.921C319.27 336.649 319.202 337.39 319.153 338.143C319.086 339.045 319.055 339.952 319.055 340.872" stroke="white" stroke-linecap="round" stroke-linejoin="round" />
    <path d="M435 340.897V350.06H377.181V340.885C377.181 339.965 377.15 339.032 377.083 338.156C377.034 337.402 376.966 336.661 376.868 335.933C376.868 335.797 376.868 335.655 376.813 335.519C376.721 334.815 376.605 334.118 376.47 333.432C376.452 333.31 376.428 333.188 376.397 333.068C376.089 331.507 375.68 329.969 375.172 328.462C375.086 328.203 374.994 327.95 374.902 327.696C374.725 327.19 374.529 326.69 374.327 326.202C374.125 325.708 373.91 325.22 373.714 324.745C373.494 324.263 373.261 323.794 373.022 323.331C372.893 323.096 372.771 322.862 372.642 322.633C372.391 322.177 372.134 321.726 371.864 321.287C371.73 321.065 371.589 320.843 371.448 320.621C371.172 320.188 370.884 319.762 370.59 319.349C367.42 314.772 363.04 311.182 357.949 308.988C357.63 308.852 357.305 308.729 356.981 308.605C356.46 308.414 355.94 308.235 355.413 308.08C354.757 307.883 354.09 307.71 353.416 307.574C351.683 307.199 349.915 307.011 348.143 307.012H405.962C421.972 307 435 322.176 435 340.897Z" stroke="white" stroke-linecap="round" stroke-linejoin="round" />
    <path opacity="0.25" d="M435 340.897V350.06H377.181V340.885C377.181 339.965 377.15 339.032 377.083 338.156C377.034 337.402 376.966 336.661 376.868 335.933C376.868 335.797 376.868 335.655 376.813 335.519C376.721 334.815 376.605 334.118 376.47 333.432C376.452 333.31 376.428 333.188 376.397 333.068C376.089 331.507 375.68 329.969 375.172 328.462C375.086 328.203 374.994 327.95 374.902 327.696C374.725 327.19 374.529 326.69 374.327 326.202C374.125 325.708 373.91 325.22 373.714 324.745C373.494 324.263 373.261 323.794 373.022 323.331C372.893 323.096 372.771 322.862 372.642 322.633C372.391 322.177 372.134 321.726 371.864 321.287C371.73 321.065 371.589 320.843 371.448 320.621C371.172 320.188 370.884 319.762 370.59 319.349C367.42 314.772 363.04 311.182 357.949 308.988C357.63 308.852 357.305 308.729 356.981 308.605C356.46 308.414 355.94 308.235 355.413 308.08C354.757 307.883 354.09 307.71 353.416 307.574C351.683 307.199 349.915 307.011 348.143 307.012H405.962C421.972 307 435 322.176 435 340.897Z" fill="white" />
    <path d="M352.062 340.885H352.075H377.181" stroke="white" stroke-linecap="round" stroke-linejoin="round" />
    <path d="M377.187 350.06H352.075H344.112H319.006H319V340.885H319.006H344.112H344.131" stroke="white" stroke-linecap="round" stroke-linejoin="round" />
    <path d="M352.075 335.297H344.118V350.06H352.075V335.297Z" stroke="white" stroke-linecap="round" stroke-linejoin="round" />
    <path opacity="0.25" d="M352.075 335.297H344.118V350.06H352.075V335.297Z" fill="white" />
    <path d="M435 350.06H319.006V357H435V350.06Z" stroke="white" stroke-linecap="round" stroke-linejoin="round" />
    <path d="M338.324 326.184H331.544V333.019H338.324V326.184Z" stroke="white" stroke-linecap="round" stroke-linejoin="round" />
    <path d="M363.283 326.184H356.503V333.019H363.283V326.184Z" stroke="white" stroke-linecap="round" stroke-linejoin="round" />
    <path d="M73.865 320.36C73.865 320.36 57.7089 317.003 58.8337 325.703C59.9586 334.402 76.6175 342.984 75.8659 361.855" stroke="white" stroke-linecap="round" stroke-linejoin="round" />
    <path d="M160.39 326.444L160.066 326.513V326.364L160.39 326.444Z" stroke="white" stroke-linecap="round" stroke-linejoin="round" />
    <path d="M76.8117 315.052H77.6131L79.9474 301.909L80.679 301.647V315.052H85.7707L84.0337 298.912L83.3916 298.645L83.5459 298.097L82.8789 295.164L86.6816 293.772L86.9255 290.464L83.5908 290.049L83.2572 282.529L84.8351 281.492H86.4825L86.7463 280.322L83.302 280.08L82.5704 280.697C82.5704 280.697 82.0329 277.389 82.1026 277.325C82.1722 277.261 82.7694 276.441 82.7694 276.441L82.1672 276.046L82.0328 272.802H81.4106V274.481H80.689V275.893H79.9075L81.2862 276.797V277.522L78.5736 277.656L80.2411 278.979L80.3755 280.144L80.5297 280.678H79.375L78.8175 280.125H77.7524L78.7479 281.512L79.9474 281.779L80.8134 282.924L81.1021 283.566L81.1269 290.291L76.5479 290.508V293.688L78.2601 294.058L80.7488 295.337V297.169L79.5691 299.287L77.8121 309.384L76.8117 315.052Z" stroke="white" stroke-linecap="round" stroke-linejoin="round" />
    <path d="M76.5679 293.688C79.9357 293.438 83.3186 293.466 86.6817 293.772" stroke="white" stroke-linecap="round" stroke-linejoin="round" />
    <path d="M79.4995 293.54C79.5443 293.644 81.7443 295.075 81.7443 295.075" stroke="white" stroke-linecap="round" stroke-linejoin="round" />
    <path d="M84.7257 293.604C84.661 293.604 83.1677 294.656 83.1677 294.656" stroke="white" stroke-linecap="round" stroke-linejoin="round" />
    <path d="M81.8586 293.515L82.4808 296.266L83.1677 305.923L83.3469 315.053" stroke="white" stroke-linecap="round" stroke-linejoin="round" />
    <path d="M79.6536 303.568H81.6246" stroke="white" stroke-linecap="round" stroke-linejoin="round" />
    <path d="M78.8772 307.917H81.6247" stroke="white" stroke-linecap="round" stroke-linejoin="round" />
    <path d="M122.857 310.243V310.688L122.563 310.495H122.478V310.426L122.015 310.12L122.483 310.179L122.857 310.243Z" stroke="white" stroke-linecap="round" stroke-linejoin="round" />
    <path d="M122.498 303.119V310.199L122.035 310.145C119.825 308.664 118.362 307.409 118.282 306.689C118.173 305.622 118.556 304.121 119.114 302.605L122.498 303.119Z" stroke="white" stroke-linecap="round" stroke-linejoin="round" />
    <path d="M105.366 292.977V298.018L100.728 298.423V293.382L105.366 292.977Z" stroke="white" stroke-linecap="round" stroke-linejoin="round" />
    <path d="M122.856 295.989V303.143L119.093 302.57C119.684 301.017 120.369 299.5 121.144 298.028C121.218 297.885 121.251 297.725 121.241 297.565C121.232 297.405 121.179 297.25 121.088 297.117C120.998 296.984 120.873 296.878 120.727 296.809C120.581 296.74 120.419 296.711 120.258 296.725L105.366 298.018V292.977L122.254 295.885L122.856 295.989Z" stroke="white" stroke-linecap="round" stroke-linejoin="round" />
    <path d="M142.507 318.706V321.516C140.695 320.602 138.226 319.343 135.538 317.931H135.509L142.402 318.711L142.507 318.706Z" stroke="white" stroke-linecap="round" stroke-linejoin="round" />
    <path d="M126.978 309.898V313.196C125.484 312.332 124.091 311.482 122.866 310.693V310.48L126.699 309.937L126.978 309.898Z" stroke="white" stroke-linecap="round" stroke-linejoin="round" />
    <path d="M142.507 312.006V312.204L142.427 318.721L135.563 317.951H135.534C132.726 316.47 129.695 314.816 126.973 313.231V309.932L142.168 311.972L142.507 312.006Z" stroke="white" stroke-linecap="round" stroke-linejoin="round" />
    <path d="M126.589 302.847V309.928L122.856 310.456L122.558 310.495L122.473 310.51V303.346L122.856 303.301L126.589 302.847Z" stroke="white" stroke-linecap="round" stroke-linejoin="round" />
    <path d="M126.589 302.847L142.163 305.252V311.937L126.589 309.927V302.847Z" stroke="white" stroke-linecap="round" stroke-linejoin="round" />
    <path d="M126.963 302.882L122.856 303.38V296.226L126.963 295.811V302.882Z" stroke="white" stroke-linecap="round" stroke-linejoin="round" />
    <path d="M126.963 295.811L142.507 298.527V305.281L126.963 302.882V295.811Z" stroke="white" stroke-linecap="round" stroke-linejoin="round" />
    <path d="M126.375 295.816L122.249 296.231V289.062L126.375 288.731V295.816Z" stroke="white" stroke-linecap="round" stroke-linejoin="round" />
    <path d="M126.375 288.731L141.964 291.772V298.433L126.375 295.816V288.731Z" stroke="white" stroke-linecap="round" stroke-linejoin="round" />
    <path d="M146.165 318.291V323.155L145.503 323.012L142.517 322.365V318.918L146.165 318.291Z" stroke="white" stroke-linecap="round" stroke-linejoin="round" />
    <path d="M160.066 319.906V326.073L158.25 325.93C154.587 325.051 150.515 324.113 146.165 323.155V318.291L159.2 319.807L160.066 319.906Z" stroke="white" stroke-linecap="round" stroke-linejoin="round" />
    <path d="M146.17 318.316L142.507 318.958V312.208L146.17 311.641V318.316Z" stroke="white" stroke-linecap="round" stroke-linejoin="round" />
    <path d="M146.17 311.641L160.067 313.537L159.987 319.896L146.17 318.316V311.641Z" stroke="white" stroke-linecap="round" stroke-linejoin="round" />
    <path d="M145.832 311.666L142.163 312.233V305.474L145.832 304.98V311.666Z" stroke="white" stroke-linecap="round" stroke-linejoin="round" />
    <path d="M145.832 304.98L159.758 307.163V313.492L145.832 311.666V304.98Z" stroke="white" stroke-linecap="round" stroke-linejoin="round" />
    <path d="M146.17 305.009L142.507 305.503V298.754L146.17 298.334V305.009Z" stroke="white" stroke-linecap="round" stroke-linejoin="round" />
    <path d="M146.17 298.334L160.067 300.798V307.192L146.17 305.009V298.334Z" stroke="white" stroke-linecap="round" stroke-linejoin="round" />
    <path d="M163.351 319.501V325.826L160.395 326.448H160.39L160.066 326.512V320.118L163.351 319.501Z" stroke="white" stroke-linecap="round" stroke-linejoin="round" />
    <path d="M175.854 320.982V326.838L163.352 325.826V319.501L175.785 320.972L175.854 320.982Z" stroke="white" stroke-linecap="round" stroke-linejoin="round" />
    <path d="M163.351 319.521L160.066 320.143V313.749L163.351 313.196V319.521Z" stroke="white" stroke-linecap="round" stroke-linejoin="round" />
    <path d="M163.352 313.196L175.854 314.934L175.785 320.973L163.352 319.521V313.196Z" stroke="white" stroke-linecap="round" stroke-linejoin="round" />
    <path d="M163.048 313.221L159.758 313.778V307.375L163.048 306.891V313.221Z" stroke="white" stroke-linecap="round" stroke-linejoin="round" />
    <path d="M163.048 306.891L175.576 308.885V314.894L163.048 313.22V306.891Z" stroke="white" stroke-linecap="round" stroke-linejoin="round" />
    <path d="M163.351 306.915L160.066 307.404V301.01L163.351 300.59V306.915Z" stroke="white" stroke-linecap="round" stroke-linejoin="round" />
    <path d="M163.352 300.59L175.854 302.837V308.91L163.352 306.915V300.59Z" stroke="white" stroke-linecap="round" stroke-linejoin="round" />
    <path d="M162.879 300.601L159.584 301.02V294.616L162.879 294.261V300.601Z" stroke="white" stroke-linecap="round" stroke-linejoin="round" />
    <path d="M162.879 294.261L175.416 296.769V302.758L162.879 300.601V294.261Z" stroke="white" stroke-linecap="round" stroke-linejoin="round" />
    <path d="M178.816 320.587V326.596L175.854 327.258V321.185L178.816 320.587Z" stroke="white" stroke-linecap="round" stroke-linejoin="round" />
    <path d="M178.821 320.582L190.124 321.955V327.529L178.821 326.591V320.582Z" stroke="white" stroke-linecap="round" stroke-linejoin="round" />
    <path d="M178.821 320.607L175.854 321.204V315.136L178.821 314.593V320.607Z" stroke="white" stroke-linecap="round" stroke-linejoin="round" />
    <path d="M178.821 314.593L190.124 316.198L190.064 321.945L178.821 320.607V314.593Z" stroke="white" stroke-linecap="round" stroke-linejoin="round" />
    <path d="M178.547 314.623L175.576 315.161V309.088L178.547 308.604V314.623Z" stroke="white" stroke-linecap="round" stroke-linejoin="round" />
    <path d="M178.547 308.604L189.875 310.441V316.163L178.547 314.623V308.604Z" stroke="white" stroke-linecap="round" stroke-linejoin="round" />
    <path d="M178.821 308.629L175.854 309.108V303.04L178.821 302.62V308.629Z" stroke="white" stroke-linecap="round" stroke-linejoin="round" />
    <path d="M178.821 302.62L190.124 304.684V310.461L178.821 308.629V302.62Z" stroke="white" stroke-linecap="round" stroke-linejoin="round" />
    <path d="M178.393 302.63L175.417 303.05V296.972L178.393 296.611V302.63Z" stroke="white" stroke-linecap="round" stroke-linejoin="round" />
    <path d="M178.393 296.611L189.731 298.907V304.61L178.393 302.63V296.611Z" stroke="white" stroke-linecap="round" stroke-linejoin="round" />
    <path d="M178.816 326.562V332.571L177.82 332.793L177.716 332.541L176.935 330.695H176.87H176.84H176.785L176.288 330.556L176.123 330.512L175.844 330.438V327.209L178.816 326.562Z" stroke="white" stroke-linecap="round" stroke-linejoin="round" />
    <path d="M178.821 326.566L190.124 327.934V333.513L178.821 332.575V326.566Z" stroke="white" stroke-linecap="round" stroke-linejoin="round" />
    <path d="M178.821 332.319V334.442L178.452 334.259L177.835 332.798L177.726 332.541L178.821 332.319Z" stroke="white" stroke-linecap="round" stroke-linejoin="round" />
    <path d="M190.124 333.691V339.266L188.288 339.113L187.068 338.51L178.821 334.442V332.319L185.421 333.123L190.124 333.691Z" stroke="white" stroke-linecap="round" stroke-linejoin="round" />
    <path d="M190.124 338.881V340.021L188.288 339.113L187.068 338.51L190.124 338.881Z" stroke="white" stroke-linecap="round" stroke-linejoin="round" />
    <path opacity="0.29" d="M248 375.413V377.674C248 377.892 192.339 379.714 191.891 379.714L100.444 380.158C100.444 380.158 88.6427 380.597 78.5438 380.928C72.3984 381.123 66.2467 380.921 60.1279 380.321C60.1279 380.321 70.4558 373.344 70.3961 366.906C70.3961 366.665 70.3961 366.429 70.3961 366.195C77.7426 366.506 145.638 369.36 158.623 369.834C171.773 370.298 241.833 374.998 248 375.413Z" fill="white" />
    <path d="M248 375.413V377.674C248 377.892 192.339 379.714 191.891 379.714L100.444 380.158C100.444 380.158 88.6427 380.597 78.5438 380.928C72.3984 381.123 66.2467 380.921 60.1279 380.321C60.1279 380.321 70.4558 373.344 70.3961 366.906C70.3961 366.665 70.3961 366.429 70.3961 366.195C77.7426 366.506 145.638 369.36 158.623 369.834C171.773 370.298 241.833 374.998 248 375.413Z" stroke="white" stroke-linecap="round" stroke-linejoin="round" />
    <path d="M247.995 368.323V375.413C241.833 374.998 171.758 370.293 158.628 369.814C145.642 369.345 77.7474 366.486 70.3959 366.175C70.1732 360.98 69.0274 355.865 67.0114 351.066C65.4684 347.259 60.7898 339.71 60.7898 339.71C60.7898 339.71 55.8125 341.655 55.1555 342.07C54.4985 342.485 54.16 341.636 54.16 341.636L53.6623 341.882L53.5528 343.418C53.6617 343.468 53.7522 343.551 53.8119 343.654C53.8716 343.758 53.8975 343.877 53.8862 343.996C53.8869 344.115 53.8635 344.233 53.8173 344.344C53.7712 344.454 53.7033 344.554 53.6176 344.638L53.4931 345.674C53.7231 345.973 53.8597 346.332 53.8862 346.706C53.8807 346.914 53.827 347.117 53.7295 347.3C53.6319 347.483 53.4932 347.642 53.3239 347.763L53.3885 348.78C53.6275 349.057 53.7676 349.404 53.7867 349.768C53.7069 350.245 53.5047 350.694 53.1994 351.071L52.8261 360.329C53.125 360.262 53.395 360.103 53.5976 359.875C54.0157 359.46 54.0157 357.263 54.0157 357.263L55.6233 356.167L55.4841 360.734L56.8726 361.124L56.2903 362.324L47.1172 362.116L47.3163 361.163L48.9837 360.67L50.447 356.112L51.4424 357.396H51.8456L52.4578 350.563L52.1094 349.886C51.761 349.21 52.7366 348.825 52.7366 348.825V347.442C52.5326 347.203 52.3984 346.912 52.3483 346.603C52.2886 346.109 52.9008 345.798 52.9008 345.798V344.81C52.9008 344.81 52.6221 344.81 52.4827 344.401C52.3434 343.991 52.861 343.556 52.861 343.556C52.7893 342.761 52.7893 341.962 52.861 341.167C52.8823 341.026 52.9452 340.894 53.0417 340.789C53.1383 340.683 53.2641 340.609 53.4035 340.574C52.9487 339.098 52.6403 337.582 52.4827 336.046C52.3732 334.116 54.3243 332.511 54.3243 332.511C54.3243 332.511 31.5583 319.619 56.3551 316.474C58.9084 316.148 61.5115 315.892 64.1146 315.689C69.933 315.24 75.7713 315.077 81.2513 315.077C97.1039 315.077 109.871 316.474 109.871 316.474C121.045 318.069 132.378 320.227 142.472 322.399L143.228 322.562C143.98 322.72 144.721 322.883 145.458 323.056L146.125 323.199H146.215L148.166 323.634L151.65 324.424L152.411 324.596L153.163 324.769L153.905 324.942L155.079 325.218L155.373 325.288L156.657 325.589L158.195 325.954L160.012 326.389L160.335 326.473C167.96 328.319 173.545 329.81 175.795 330.423L176.073 330.497L176.238 330.541L176.735 330.679H176.79H176.82H176.855L177.631 332.526L177.741 332.778L178.358 334.259L178.721 334.442L181.638 335.883L186.969 338.515L188.188 339.118L190.025 340.026L246.895 368.105L247.995 368.323Z" stroke="white" stroke-linecap="round" stroke-linejoin="round" />
    <path d="M84.1382 299.87L120.258 296.724C120.419 296.711 120.581 296.74 120.727 296.809C120.873 296.878 120.998 296.984 121.088 297.117C121.179 297.25 121.232 297.405 121.241 297.565C121.251 297.725 121.218 297.885 121.144 298.028C119.994 300.24 118.014 304.447 118.257 306.678C118.591 309.829 145.503 323.012 145.503 323.012" stroke="white" stroke-linecap="round" stroke-linejoin="round" />
    <path d="M64.1497 315.669C64.1497 315.669 69.3261 308.836 64.8216 305.686C60.3172 302.536 61.1533 301.869 61.1533 301.869L79.3702 300.284" stroke="white" stroke-linecap="round" stroke-linejoin="round" />
    <g opacity="0.29">
      <path opacity="0.29" d="M96.0039 326.325C95.5026 326.554 94.9742 326.72 94.4312 326.818C92.3407 327.312 91.3452 326.359 91.4448 324.602C91.5393 322.503 93.0673 321.442 94.899 321.57C95.4094 321.577 95.9146 321.673 96.3922 321.851L96.0636 322.701C95.6967 322.577 95.3115 322.515 94.9239 322.518C94.6657 322.494 94.4052 322.524 94.1593 322.606C93.9135 322.688 93.6877 322.82 93.4967 322.994C93.3057 323.168 93.1537 323.38 93.0506 323.616C92.9475 323.852 92.8956 324.107 92.8981 324.365C92.8384 325.495 93.5153 326.043 94.7347 325.846C95.1302 325.778 95.5173 325.669 95.8895 325.52C95.8994 325.787 95.9492 326.053 96.0039 326.325Z" fill="white" />
      <path opacity="0.29" d="M98.4827 325.012C98.3134 325.392 98.1442 325.772 97.9849 326.167C97.4872 326.226 97.0292 326.29 96.5564 326.364C97.2731 324.725 97.9899 323.229 98.6967 321.827L100.489 321.906C101.031 323.279 101.579 324.577 102.141 325.856C101.643 325.856 101.146 325.881 100.648 325.93C100.508 325.594 100.374 325.263 100.24 324.942C99.6523 324.946 99.0667 324.969 98.4827 325.012ZM100.07 324.231C99.9659 323.945 99.8564 323.659 99.7469 323.367C99.6374 323.076 99.5677 322.814 99.4931 322.568C99.3836 322.809 99.2741 323.125 99.1596 323.372L98.7415 324.276L100.07 324.231Z" fill="white" />
      <path opacity="0.29" d="M103.161 322.079C103.77 322.047 104.38 322.047 104.988 322.079C105.656 322.064 106.318 322.196 106.929 322.464C107.088 322.532 107.222 322.645 107.315 322.789C107.408 322.934 107.456 323.102 107.452 323.274C107.452 323.767 106.869 324.044 106.342 324.133C106.524 324.184 106.69 324.278 106.827 324.408C106.963 324.538 107.065 324.7 107.123 324.878C107.252 325.252 107.403 325.618 107.576 325.974C107.103 325.93 106.635 325.895 106.163 325.871C105.992 325.594 105.861 325.295 105.774 324.982C105.635 324.488 105.376 324.37 104.819 324.345H104.401C104.401 324.839 104.351 325.332 104.321 325.826C103.863 325.826 103.405 325.826 102.947 325.826C103.017 324.572 103.087 323.328 103.161 322.079ZM104.43 323.748H104.973C105.66 323.748 106.078 323.585 106.093 323.254C106.108 322.923 105.735 322.721 105.097 322.691C104.89 322.68 104.683 322.68 104.475 322.691C104.47 323.061 104.45 323.402 104.43 323.748Z" fill="white" />
      <path opacity="0.29" d="M113.37 326.695C112.693 326.707 112.016 326.656 111.349 326.542C110.477 326.432 109.64 326.131 108.9 325.658C108.648 325.502 108.441 325.283 108.3 325.023C108.158 324.764 108.087 324.472 108.094 324.177C108.154 322.928 109.642 322.281 111.628 322.365C112.195 322.376 112.758 322.474 113.295 322.656C113.196 322.913 113.091 323.15 112.986 323.422C112.538 323.247 112.064 323.148 111.583 323.13C110.443 323.051 109.567 323.412 109.537 324.251C109.507 325.091 110.279 325.604 111.399 325.782C111.621 325.826 111.849 325.841 112.076 325.826C112.076 325.535 112.076 325.244 112.101 324.952L111.17 324.834C111.17 324.597 111.17 324.34 111.17 324.118C111.921 324.197 112.663 324.281 113.42 324.37C113.42 325.16 113.395 325.93 113.37 326.695Z" fill="white" />
      <path opacity="0.29" d="M119.959 325.792C119.86 327.806 118.66 328.522 116.938 327.935C115.216 327.347 114.176 326.123 114.216 324.854C114.256 323.585 115.445 322.572 117.232 322.622C119.019 322.671 120.044 324.098 119.959 325.792ZM115.654 325.056C115.62 325.494 115.74 325.929 115.993 326.289C116.246 326.649 116.617 326.912 117.043 327.031C117.949 327.288 118.496 326.636 118.536 325.55C118.581 324.538 118.098 323.629 117.157 323.575C116.217 323.521 115.684 324.128 115.654 325.056Z" fill="white" />
    </g>
    <path d="M207.565 348.632L195.858 293.288L222.332 292.562V283.166H151.954V292.562L166.064 292.518L165.905 294.868" stroke="white" stroke-linecap="round" stroke-linejoin="round" />
    <path d="M208.635 292.977L198.705 302.412" stroke="white" stroke-linecap="round" stroke-linejoin="round" />
    <path d="M219.077 285.773H154.88V288.735H219.077V285.773Z" stroke="white" stroke-linecap="round" stroke-linejoin="round" />
    <path d="M159.818 285.773V288.73" stroke="white" stroke-linecap="round" stroke-linejoin="round" />
    <path d="M164.755 285.773V288.73" stroke="white" stroke-linecap="round" stroke-linejoin="round" />
    <path d="M169.693 285.773V288.73" stroke="white" stroke-linecap="round" stroke-linejoin="round" />
    <path d="M174.63 285.773V288.73" stroke="white" stroke-linecap="round" stroke-linejoin="round" />
    <path d="M179.567 285.773V288.73" stroke="white" stroke-linecap="round" stroke-linejoin="round" />
    <path d="M184.505 285.773V288.73" stroke="white" stroke-linecap="round" stroke-linejoin="round" />
    <path d="M189.447 285.773V288.73" stroke="white" stroke-linecap="round" stroke-linejoin="round" />
    <path d="M194.385 285.773V288.73" stroke="white" stroke-linecap="round" stroke-linejoin="round" />
    <path d="M199.322 285.773V288.73" stroke="white" stroke-linecap="round" stroke-linejoin="round" />
    <path d="M204.26 285.773V288.73" stroke="white" stroke-linecap="round" stroke-linejoin="round" />
    <path d="M209.197 285.773V288.73" stroke="white" stroke-linecap="round" stroke-linejoin="round" />
    <path d="M214.135 285.773V288.73" stroke="white" stroke-linecap="round" stroke-linejoin="round" />
    <path d="M195.858 293.288L214.135 351.881" stroke="white" stroke-linecap="round" stroke-linejoin="round" />
    <path d="M210.203 292.893L199.954 306.427" stroke="white" stroke-linecap="round" stroke-linejoin="round" />
    <path d="M526 357H226" stroke="white" stroke-linecap="round" stroke-linejoin="round" />
    <path d="M69 357H-60" stroke="white" stroke-linecap="round" stroke-linejoin="round" />
    <path d="M524.583 357.306L551.785 385.388" stroke="white" />
    <g clip-path="url(#clip2_534_7527)">
      <path d="M-552.11 438.741C-448.943 438.741 -448.943 448.238 -345.776 448.238C-242.609 448.238 -242.609 438.741 -139.442 438.741C-36.2746 438.741 -36.2748 448.238 66.8924 448.238C170.06 448.238 170.06 438.741 273.238 438.741C376.417 438.741 376.405 448.238 479.572 448.238C582.74 448.238 582.74 438.741 685.907 438.741C789.074 438.741 789.074 448.238 892.241 448.238C995.408 448.238 995.408 438.741 1098.58 438.741C1201.74 438.741 1201.74 448.238 1304.91 448.238" stroke="white" stroke-width="0.75" stroke-miterlimit="10" />
      <path d="M-765.088 440.682C-661.921 440.682 -661.921 450.172 -558.754 450.172C-455.587 450.172 -455.587 440.682 -352.42 440.682C-249.253 440.682 -249.253 450.172 -146.086 450.172C-42.9184 450.172 -42.9183 440.682 60.2489 440.682C163.416 440.682 163.416 450.172 266.583 450.172C369.75 450.172 369.762 440.682 472.929 440.682C576.096 440.682 576.096 450.172 679.252 450.172C782.408 450.172 782.419 440.682 885.586 440.682C988.753 440.682 988.765 450.172 1091.93 450.172C1195.1 450.172 1195.1 440.682 1298.27 440.682" stroke="white" stroke-width="0.75" stroke-miterlimit="10" />
      <path d="M-655.176 431.185C-552.009 431.185 -552.009 440.682 -448.842 440.682C-345.674 440.682 -345.674 431.185 -242.507 431.185C-139.34 431.185 -139.34 440.682 -36.173 440.682C66.9941 440.682 66.9943 431.185 170.161 431.185C273.329 431.185 273.329 440.682 376.496 440.682C479.663 440.682 479.663 431.185 582.83 431.185C685.997 431.185 685.997 440.682 789.164 440.682C892.331 440.682 892.331 431.185 995.499 431.185C1098.67 431.185 1098.67 440.682 1201.84 440.682C1305.02 440.682 1305.01 431.185 1408.18 431.185" stroke="white" stroke-width="0.75" stroke-miterlimit="10" />
      <path d="M-724.662 431.185C-621.495 431.185 -621.495 440.682 -518.328 440.682C-415.161 440.682 -415.16 431.185 -311.993 431.185C-208.826 431.185 -208.826 440.682 -105.659 440.682C-2.49197 440.682 -2.49183 431.185 100.675 431.185C203.842 431.185 203.842 440.682 307.01 440.682C410.177 440.682 410.177 431.185 513.344 431.185C616.511 431.185 616.511 440.682 719.678 440.682C822.845 440.682 822.845 431.185 926.012 431.185C1029.18 431.185 1029.18 440.682 1132.35 440.682C1235.51 440.682 1235.51 431.185 1338.68 431.185" stroke="white" stroke-width="0.75" stroke-miterlimit="10" />
      <path d="M-665.187 455.258C-562.019 455.258 -562.019 464.755 -458.852 464.755C-355.685 464.755 -355.685 455.258 -252.518 455.258C-149.351 455.258 -149.351 464.755 -46.1835 464.755C56.9836 464.755 56.9835 455.258 160.151 455.258C263.318 455.258 263.318 464.755 366.485 464.755C469.652 464.755 469.664 455.258 572.831 455.258C675.998 455.258 675.998 464.755 779.154 464.755C882.31 464.755 882.321 455.258 985.488 455.258C1088.66 455.258 1088.67 464.755 1191.83 464.755C1295 464.755 1295 455.258 1398.17 455.258" stroke="white" stroke-width="0.75" stroke-miterlimit="10" />
      <path d="M-781.55 458.688C-678.383 458.688 -678.383 468.185 -575.216 468.185C-472.049 468.185 -472.049 458.688 -368.882 458.688C-265.715 458.688 -265.714 468.185 -162.547 468.185C-59.3801 468.185 -59.3803 458.688 43.7869 458.688C146.954 458.688 146.954 468.185 250.121 468.185C353.288 468.185 353.288 458.688 456.467 458.688C559.645 458.688 559.623 468.185 662.79 468.185C765.957 468.185 765.957 458.688 869.124 458.688C972.291 458.688 972.291 468.185 1075.47 468.185C1178.65 468.185 1178.64 458.688 1281.8 458.688" stroke="white" stroke-width="0.75" stroke-miterlimit="10" />
      <path d="M-655.176 476.279C-552.009 476.279 -552.009 485.776 -448.842 485.776C-345.674 485.776 -345.674 476.279 -242.507 476.279C-139.34 476.279 -139.34 485.776 -36.173 485.776C66.9941 485.776 66.9943 476.279 170.161 476.279C273.329 476.279 273.329 485.776 376.496 485.776C479.663 485.776 479.663 476.279 582.83 476.279C685.997 476.279 685.997 485.776 789.164 485.776C892.331 485.776 892.331 476.279 995.499 476.279C1098.67 476.279 1098.67 485.776 1201.84 485.776C1305.02 485.776 1305.01 476.279 1408.18 476.279" stroke="white" stroke-width="0.75" stroke-miterlimit="10" />
    </g>
    <g clip-path="url(#clip3_534_7527)">
      <path d="M-726.894 412.819C-613.009 412.819 -613.009 422.316 -499.124 422.316C-385.24 422.316 -385.24 412.819 -271.355 412.819C-157.47 412.819 -157.471 422.316 -43.586 422.316C70.2986 422.316 70.2988 412.819 184.196 412.819C298.093 412.819 298.08 422.316 411.965 422.316C525.85 422.316 525.85 412.819 639.734 412.819C753.619 412.819 753.619 422.316 867.504 422.316C981.388 422.316 981.388 412.819 1095.27 412.819C1209.16 412.819 1209.16 422.316 1323.04 422.316" stroke="white" stroke-width="0.75" stroke-miterlimit="10" />
      <path d="M-961.997 414.76C-848.112 414.76 -848.112 424.249 -734.228 424.249C-620.343 424.249 -620.343 414.76 -506.458 414.76C-392.573 414.76 -392.574 424.249 -278.689 424.249C-164.804 424.249 -164.804 414.76 -50.9196 414.76C62.965 414.76 62.9648 424.249 176.849 424.249C290.734 424.249 290.747 414.76 404.631 414.76C518.516 414.76 518.516 424.249 632.388 424.249C746.26 424.249 746.273 414.76 860.157 414.76C974.042 414.76 974.054 424.249 1087.94 424.249C1201.82 424.249 1201.82 414.76 1315.71 414.76" stroke="white" stroke-width="0.75" stroke-miterlimit="10" />
      <path d="M-840.666 405.262C-726.781 405.262 -726.782 414.759 -612.897 414.759C-499.012 414.759 -499.012 405.262 -385.128 405.262C-271.243 405.262 -271.243 414.759 -157.358 414.759C-43.4739 414.759 -43.4737 405.262 70.4109 405.262C184.296 405.262 184.296 414.759 298.18 414.759C412.065 414.759 412.065 405.262 525.949 405.262C639.834 405.262 639.834 414.759 753.719 414.759C867.603 414.759 867.603 405.262 981.488 405.262C1095.37 405.262 1095.37 414.759 1209.27 414.759C1323.17 414.759 1323.15 405.262 1437.04 405.262" stroke="white" stroke-width="0.75" stroke-miterlimit="10" />
      <path d="M-917.371 405.262C-803.486 405.262 -803.486 414.759 -689.602 414.759C-575.717 414.759 -575.717 405.262 -461.832 405.262C-347.948 405.262 -347.948 414.759 -234.063 414.759C-120.179 414.759 -120.178 405.262 -6.29376 405.262C107.591 405.262 107.591 414.759 221.475 414.759C335.36 414.759 335.36 405.262 449.245 405.262C563.129 405.262 563.129 414.759 677.014 414.759C790.898 414.759 790.898 405.262 904.783 405.262C1018.67 405.262 1018.67 414.759 1132.55 414.759C1246.44 414.759 1246.44 405.262 1360.32 405.262" stroke="white" stroke-width="0.75" stroke-miterlimit="10" />
      <path d="M-851.717 429.336C-737.832 429.336 -737.832 438.833 -623.947 438.833C-510.063 438.833 -510.063 429.336 -396.178 429.336C-282.294 429.336 -282.293 438.833 -168.409 438.833C-54.5242 438.833 -54.5244 429.336 59.3602 429.336C173.245 429.336 173.245 438.833 287.13 438.833C401.014 438.833 401.027 429.336 514.911 429.336C628.796 429.336 628.796 438.833 742.668 438.833C856.54 438.833 856.553 429.336 970.437 429.336C1084.32 429.336 1084.33 438.833 1198.22 438.833C1312.1 438.833 1312.1 429.336 1425.99 429.336" stroke="white" stroke-width="0.75" stroke-miterlimit="10" />
      <path d="M-980.169 432.765C-866.284 432.765 -866.284 442.262 -752.399 442.262C-638.515 442.262 -638.515 432.765 -524.63 432.765C-410.746 432.765 -410.746 442.262 -296.861 442.262C-182.976 442.262 -182.977 432.765 -69.0919 432.765C44.7927 432.765 44.7928 442.262 158.677 442.262C272.562 442.262 272.562 432.765 386.459 432.765C500.356 432.765 500.331 442.262 614.216 442.262C728.1 442.262 728.1 432.765 841.985 432.765C955.87 432.765 955.87 442.262 1069.77 442.262C1183.66 442.262 1183.65 432.765 1297.54 432.765" stroke="white" stroke-width="0.75" stroke-miterlimit="10" />
      <path d="M-840.666 450.357C-726.781 450.357 -726.782 459.854 -612.897 459.854C-499.012 459.854 -499.012 450.357 -385.128 450.357C-271.243 450.357 -271.243 459.854 -157.358 459.854C-43.4739 459.854 -43.4737 450.357 70.4109 450.357C184.296 450.357 184.296 459.854 298.18 459.854C412.065 459.854 412.065 450.357 525.949 450.357C639.834 450.357 639.834 459.854 753.719 459.854C867.603 459.854 867.603 450.357 981.488 450.357C1095.37 450.357 1095.37 459.854 1209.27 459.854C1323.17 459.854 1323.15 450.357 1437.04 450.357" stroke="white" stroke-width="0.75" stroke-miterlimit="10" />
    </g>
    <g clip-path="url(#clip4_534_7527)">
      <path d="M-1369.24 387.761C-1261.51 387.761 -1261.51 397.258 -1153.78 397.258C-1046.04 397.258 -1046.04 387.761 -938.309 387.761C-830.575 387.761 -830.576 397.258 -722.842 397.258C-615.108 397.258 -615.108 387.761 -507.362 387.761C-399.617 387.761 -399.629 397.258 -291.895 397.258C-184.161 397.258 -184.161 387.761 -76.4276 387.761C31.3062 387.761 31.3062 397.258 139.04 397.258C246.774 397.258 246.774 387.761 354.507 387.761C462.241 387.761 462.241 397.258 569.975 397.258" stroke="white" stroke-width="0.75" stroke-miterlimit="10" />
      <path d="M-1324.81 389.701C-1217.08 389.701 -1217.08 399.191 -1109.34 399.191C-1001.61 399.191 -1001.61 389.701 -893.874 389.701C-786.141 389.701 -786.141 399.191 -678.407 399.191C-570.673 399.191 -570.673 389.701 -462.94 389.701C-355.206 389.701 -355.206 399.191 -247.472 399.191C-139.739 399.191 -139.727 389.701 -31.9929 389.701C75.7409 389.701 75.7408 399.191 183.463 399.191C291.185 399.191 291.196 389.701 398.93 389.701C506.664 389.701 506.676 399.191 614.409 399.191C722.143 399.191 722.143 389.701 829.877 389.701" stroke="white" stroke-width="0.75" stroke-miterlimit="10" />
      <path d="M-1601.25 388.845C-1493.51 388.845 -1493.51 398.342 -1385.78 398.342C-1278.05 398.342 -1278.05 388.845 -1170.31 388.845C-1062.58 388.845 -1062.58 398.342 -954.845 398.342C-847.111 398.342 -847.111 388.845 -739.377 388.845C-631.643 388.845 -631.643 398.342 -523.91 398.342C-416.176 398.342 -416.176 388.845 -308.442 388.845C-200.708 388.845 -200.708 398.342 -92.9746 398.342C14.7592 398.342 14.7592 388.845 122.493 388.845C230.227 388.845 230.227 398.342 337.96 398.342C445.694 398.342 445.694 388.845 553.428 388.845" stroke="white" stroke-width="0.75" stroke-miterlimit="10" />
      <path d="M-1220.49 404.277C-1112.75 404.277 -1112.75 413.774 -1005.02 413.774C-897.284 413.774 -897.284 404.277 -789.551 404.277C-681.817 404.277 -681.817 413.774 -574.083 413.774C-466.349 413.774 -466.35 404.277 -358.616 404.277C-250.882 404.277 -250.882 413.774 -143.148 413.774C-35.4146 413.774 -35.4028 404.277 72.3309 404.277C180.065 404.277 180.065 413.774 287.786 413.774C395.508 413.774 395.52 404.277 503.254 404.277C610.987 404.277 610.999 413.774 718.733 413.774C826.467 413.774 826.467 404.277 934.2 404.277" stroke="white" stroke-width="0.75" stroke-miterlimit="10" />
      <path d="M-1342 407.707C-1234.27 407.707 -1234.27 417.204 -1126.53 417.204C-1018.8 417.204 -1018.8 407.707 -911.065 407.707C-803.332 407.707 -803.331 417.204 -695.598 417.204C-587.864 417.204 -587.864 407.707 -480.13 407.707C-372.397 407.707 -372.397 417.204 -264.663 417.204C-156.929 417.204 -156.929 407.707 -49.1838 407.707C58.5617 407.707 58.5382 417.204 166.272 417.204C274.006 417.204 274.006 407.707 381.739 407.707C489.473 407.707 489.473 417.204 597.219 417.204C704.964 417.204 704.952 407.707 812.686 407.707" stroke="white" stroke-width="0.75" stroke-miterlimit="10" />
      <path d="M-1210.03 425.298C-1102.3 425.298 -1102.3 434.795 -994.564 434.795C-886.831 434.795 -886.831 425.298 -779.097 425.298C-671.363 425.298 -671.363 434.795 -563.63 434.795C-455.896 434.795 -455.896 425.298 -348.162 425.298C-240.428 425.298 -240.428 434.795 -132.695 434.795C-24.9609 434.795 -24.9609 425.298 82.7728 425.298C190.506 425.298 190.506 434.795 298.24 434.795C405.974 434.795 405.974 425.298 513.708 425.298C621.441 425.298 621.441 434.795 729.187 434.795C836.932 434.795 836.921 425.298 944.654 425.298" stroke="white" stroke-width="0.75" stroke-miterlimit="10" />
    </g>
    <path d="M918.798 432.049L550.921 390.573L550.058 382.796L917.07 404.398L1138.14 390.573V406.126L918.798 432.049Z" fill="#111827" />
    <path d="M550.058 383.66L914.48 431.184L1196 394.893" stroke="white" />
    <rect x="257.812" y="357.374" width="10.2262" height="27.5146" stroke="white" />
    <rect x="281.127" y="357.374" width="10.2264" height="27.5146" stroke="white" />
    <rect x="304.443" y="357.374" width="10.2263" height="27.5146" stroke="white" />
    <rect x="327.76" y="357.374" width="10.2262" height="27.5146" stroke="white" />
    <rect x="351.076" y="357.374" width="10.2262" height="27.5146" stroke="white" />
    <rect x="374.392" y="357.374" width="10.2264" height="27.5146" stroke="white" />
    <rect x="397.708" y="357.374" width="10.2262" height="27.5146" stroke="white" />
    <rect x="421.024" y="357.374" width="10.2263" height="27.5146" stroke="white" />
    <rect x="444.34" y="357.374" width="10.2262" height="27.5146" stroke="white" />
    <rect x="467.656" y="357.374" width="10.2262" height="27.5146" stroke="white" />
    <rect x="490.972" y="357.374" width="10.2263" height="27.5146" stroke="white" />
    <rect x="514.289" y="357.374" width="10.2262" height="27.5146" stroke="white" />
    <path d="M543.081 376.945V384.888H537.604V371.1L543.081 376.945Z" stroke="white" />
    <path d="M242.899 356.726L245.397 356.66L245.107 329.499L242.609 329.564L242.899 356.726Z" stroke="white" stroke-linecap="round" stroke-linejoin="round" />
    <path d="M237 332.521L246.909 332.263L246.968 334.536L237.059 334.794L237 332.521Z" stroke="white" stroke-linecap="round" stroke-linejoin="round" />
    <path d="M290.901 357.316L293.399 357.251L293.108 314.22L290.61 314.286L290.901 357.316Z" stroke="white" stroke-linecap="round" stroke-linejoin="round" />
    <path d="M285.004 317.239L294.913 316.981L294.972 319.255L285.063 319.513L285.004 317.239Z" stroke="white" stroke-linecap="round" stroke-linejoin="round" />
    <path d="M633 383H550" stroke="white" />
  
  <defs>
    <linearGradient id="paint0_linear_534_7527" x1="513.5" y1="230" x2="513.5" y2="521.9" gradientUnits="userSpaceOnUse">
      <stop offset="0.03125" stop-color="#111827" stop-opacity="0" />
      <stop offset="0.744792" stop-color="#111827" />
    </linearGradient>
    <clipPath id="clip0_534_7527">
      <rect width="2021" height="672.918" fill="white" transform="translate(-355)" />
    </clipPath>
    <clipPath id="clip1_534_7527">
      <rect width="814.405" height="462" fill="white" transform="matrix(-1 0 0 1 1342.4 111)" />
    </clipPath>
    <clipPath id="clip2_534_7527">
      <rect width="1911.92" height="54.4369" fill="white" transform="translate(-781.55 431.185)" />
    </clipPath>
    <clipPath id="clip3_534_7527">
      <rect width="2110.54" height="54.4369" fill="white" transform="translate(-980.169 405.262)" />
    </clipPath>
    <clipPath id="clip4_534_7527">
      <rect width="1996.55" height="54.4369" fill="white" transform="translate(-1342 380.204)" />
    </clipPath>
  </defs>
</svg>