<svg viewBox="0 0 1600 514" fill="none" xmlns="http://www.w3.org/2000/svg">
  <g clip-path="url(#a)">
    <path fill="#111827" d="M-211.027 0h2022.05v672.918h-2022.05z" />
    <path d="M245.211 318H-18.926" stroke="#fff" stroke-width="1.017" stroke-linecap="round" stroke-linejoin="round" />
    <path d="M258.24 289.615s-18.717-3.898-17.414 6.2c1.303 10.098 20.602 20.059 19.732 41.963M358.478 296.675l-.375.08v-.172l.375.092ZM261.653 283.453h.929l2.704-15.255.848-.304v15.559h5.898l-2.012-18.734-.744-.31.179-.636-.773-3.404 4.406-1.616.282-3.84-3.863-.481-.387-8.729 1.828-1.203h1.909l.305-1.358-3.99-.281-.847.716s-.623-3.84-.542-3.914c.081-.075.772-1.026.772-1.026l-.697-.458-.156-3.766h-.721v1.949h-.836v1.639h-.905l1.597 1.049v.842l-3.142.155 1.931 1.536.156 1.352.179.619h-1.338l-.646-.642h-1.234l1.153 1.611 1.39.309 1.003 1.33.335.745.029 7.806-5.305.252v3.69l1.983.43 2.883 1.485v2.126l-1.366 2.458-2.036 11.72-1.159 6.579Z" stroke="#fff" stroke-linecap="round" stroke-linejoin="round" />
    <path d="M261.371 258.655a71.185 71.185 0 0 1 11.717.098" stroke="#fff" stroke-linecap="round" stroke-linejoin="round" />
    <path d="M264.767 258.484c.052.12 2.601 1.782 2.601 1.782M270.822 258.558c-.075 0-1.805 1.221-1.805 1.221M267.5 258.455l.721 3.192.796 11.21.207 10.597M264.946 270.124h2.283M264.046 275.172h3.183M314.996 277.872v.516l-.341-.224h-.097v-.08l-.537-.355.542.068.433.075Z" stroke="#fff" stroke-linecap="round" stroke-linejoin="round" />
    <path d="M314.581 269.602v8.218l-.537-.063c-2.56-1.719-4.255-3.175-4.347-4.011-.127-1.238.317-2.98.963-4.74l3.921.596ZM294.734 257.83v5.852l-5.374.47V258.3l5.374-.47ZM314.996 261.326v8.304l-4.359-.664a47.392 47.392 0 0 1 2.375-5.273 1.042 1.042 0 0 0-.065-1.057 1.044 1.044 0 0 0-.961-.456l-17.252 1.502v-5.852l19.564 3.376.698.12ZM337.76 287.695v3.261a554.412 554.412 0 0 1-8.072-4.161h-.035l7.986.906.121-.006ZM319.77 277.47v3.829a116.981 116.981 0 0 1-4.763-2.906v-.246l4.44-.631.323-.046Z" stroke="#fff" stroke-linecap="round" stroke-linejoin="round" />
    <path d="M337.76 279.918v.229l-.092 7.565-7.951-.894h-.035c-3.252-1.719-6.764-3.639-9.918-5.479v-3.828l17.604 2.367.392.04ZM319.32 269.287v8.218l-4.324.613-.346.046-.098.017v-8.315l.444-.052 4.324-.527Z" stroke="#fff" stroke-linecap="round" stroke-linejoin="round" />
    <path d="m319.32 269.287 18.043 2.791v7.76l-18.043-2.333v-8.218Z" stroke="#fff" stroke-linecap="round" stroke-linejoin="round" />
    <path d="m319.753 269.327-4.757.579v-8.304l4.757-.482v8.207ZM319.753 261.12l18.007 3.152v7.84l-18.007-2.785v-8.207ZM319.072 261.126l-4.78.481v-8.321l4.78-.384v8.224Z" stroke="#fff" stroke-linecap="round" stroke-linejoin="round" />
    <path d="m319.072 252.902 18.06 3.53v7.732l-18.06-3.038v-8.224ZM341.999 287.213v5.645l-.767-.166-3.46-.751v-4l4.227-.728ZM358.103 289.087v7.158l-2.104-.166a775.174 775.174 0 0 0-14-3.221v-5.645l15.101 1.76 1.003.114Z" stroke="#fff" stroke-linecap="round" stroke-linejoin="round" />
    <path d="m342.004 287.242-4.244.745v-7.834l4.244-.659v7.748ZM342.004 279.494l16.099 2.2-.092 7.382-16.007-1.834v-7.748ZM341.612 279.522l-4.249.66v-7.846l4.249-.573v7.759Z" stroke="#fff" stroke-linecap="round" stroke-linejoin="round" />
    <path d="m341.612 271.763 16.134 2.533v7.347l-16.134-2.121v-7.759Z" stroke="#fff" stroke-linecap="round" stroke-linejoin="round" />
    <path d="m342.004 271.797-4.244.573v-7.835l4.244-.487v7.749ZM342.004 264.048l16.099 2.86v7.422l-16.099-2.533v-7.749ZM361.909 288.617v7.342l-3.425.722h-.006l-.375.074v-7.421l3.806-.717ZM376.393 290.337v6.797l-14.484-1.175v-7.342l14.404 1.708.08.012Z" stroke="#fff" stroke-linecap="round" stroke-linejoin="round" />
    <path d="m361.909 288.641-3.806.722v-7.422l3.806-.642v7.342ZM361.909 281.299l14.484 2.018-.08 7.009-14.404-1.685v-7.342ZM361.557 281.327l-3.811.648v-7.433l3.811-.562v7.347Z" stroke="#fff" stroke-linecap="round" stroke-linejoin="round" />
    <path d="m361.557 273.98 14.514 2.316v6.974l-14.514-1.943v-7.347Z" stroke="#fff" stroke-linecap="round" stroke-linejoin="round" />
    <path d="m361.909 274.009-3.806.567v-7.422l3.806-.487v7.342ZM361.909 266.667l14.484 2.608v7.049l-14.484-2.315v-7.342ZM361.361 266.679l-3.817.487v-7.433l3.817-.412v7.358Z" stroke="#fff" stroke-linecap="round" stroke-linejoin="round" />
    <path d="m361.361 259.321 14.525 2.911v6.952l-14.525-2.505v-7.358ZM379.824 289.878v6.975l-3.431.767v-7.049l3.431-.693ZM379.83 289.873l13.095 1.593v6.47l-13.095-1.089v-6.974Z" stroke="#fff" stroke-linecap="round" stroke-linejoin="round" />
    <path d="m379.83 289.901-3.437.693v-7.043l3.437-.631v6.981ZM379.83 282.92l13.095 1.863-.069 6.671-13.026-1.553v-6.981ZM379.513 282.955l-3.442.625v-7.049l3.442-.562v6.986Z" stroke="#fff" stroke-linecap="round" stroke-linejoin="round" />
    <path d="m379.513 275.969 13.124 2.132v6.642l-13.124-1.788v-6.986Z" stroke="#fff" stroke-linecap="round" stroke-linejoin="round" />
    <path d="m379.83 275.998-3.437.556v-7.043l3.437-.488v6.975ZM379.83 269.023l13.095 2.396v6.705l-13.095-2.126v-6.975ZM379.334 269.035l-3.448.487v-7.055l3.448-.418v6.986Z" stroke="#fff" stroke-linecap="round" stroke-linejoin="round" />
    <path d="m379.334 262.049 13.135 2.664v6.62l-13.135-2.298v-6.986ZM379.824 296.813v6.975l-1.153.258-.121-.293-.905-2.143h-.173l-.577-.161-.19-.051-.323-.086v-3.748l3.442-.751ZM379.83 296.818l13.095 1.588v6.476l-13.095-1.089v-6.975Z" stroke="#fff" stroke-linecap="round" stroke-linejoin="round" />
    <path d="M379.83 303.495v2.464l-.427-.212-.715-1.696-.126-.298 1.268-.258ZM392.925 305.088v6.47l-2.128-.177-1.412-.699-9.555-4.723v-2.464l7.646.934 5.449.659Z" stroke="#fff" stroke-linecap="round" stroke-linejoin="round" />
    <path d="M392.925 311.112v1.324l-2.128-1.055-1.413-.699 3.541.43Z" stroke="#fff" stroke-linecap="round" stroke-linejoin="round" />
    <path opacity=".29" d="M459.973 353.515v2.625c0 .252-64.482 2.367-65.001 2.367l-105.941.516s-13.672.51-25.371.894a164.829 164.829 0 0 1-21.335-.705s11.965-8.098 11.896-15.571v-.826c8.511.361 87.166 3.674 102.21 4.224 15.234.539 96.398 5.995 103.542 6.476Z" fill="#fff" />
    <path d="M459.973 353.515v2.625c0 .252-64.482 2.367-65.001 2.367l-105.941.516s-13.672.51-25.371.894a164.829 164.829 0 0 1-21.335-.705s11.965-8.098 11.896-15.571v-.826c8.511.361 87.166 3.674 102.21 4.224 15.234.539 96.398 5.995 103.542 6.476Z" stroke="#fff" stroke-linecap="round" stroke-linejoin="round" />
    <path d="M459.968 345.285v8.23c-7.139-.481-88.32-5.943-103.531-6.499-15.044-.544-93.7-3.863-102.216-4.224a51.008 51.008 0 0 0-3.921-17.537c-1.788-4.418-7.208-13.181-7.208-13.181s-5.766 2.258-6.527 2.74c-.761.481-1.153-.505-1.153-.505l-.577.287-.127 1.782a.675.675 0 0 1 .386.671 1.03 1.03 0 0 1-.311.745l-.144 1.203c.266.347.425.763.455 1.198a1.554 1.554 0 0 1-.651 1.226l.075 1.181c.277.321.439.724.461 1.146a3.265 3.265 0 0 1-.68 1.513l-.433 10.746c.347-.078.659-.263.894-.527.484-.482.484-3.032.484-3.032l1.863-1.272-.161 5.301 1.608.452-.674 1.393-10.627-.241.23-1.106 1.932-.573 1.695-5.29 1.153 1.491h.467l.71-7.932-.404-.785c-.404-.785.727-1.232.727-1.232v-1.605a1.99 1.99 0 0 1-.45-.974c-.069-.574.64-.935.64-.935v-1.146s-.323 0-.484-.475c-.162-.476.438-.98.438-.98a15.483 15.483 0 0 1 0-2.774.83.83 0 0 1 .628-.688 27.306 27.306 0 0 1-1.066-5.255c-.127-2.241 2.133-4.104 2.133-4.104s-26.374-14.963 2.353-18.614c2.958-.378 5.973-.676 8.989-.911 6.74-.522 13.504-.711 19.853-.711 18.365 0 33.155 1.622 33.155 1.622 12.945 1.851 26.074 4.356 37.768 6.877l.876.189c.871.184 1.73.373 2.584.573l.772.167h.104l2.26.504 4.037.917.882.201.871.2.859.201 1.361.321.34.08 1.487.349 1.782.425 2.105.504.375.097a684.701 684.701 0 0 1 17.909 4.585l.323.086.19.052.577.16h.138l.9 2.144.127.292.715 1.719.421.212 3.379 1.674 6.175 3.054 1.413.699 2.128 1.055 65.883 32.592 1.275.252ZM270.141 265.831l41.845-3.651a1.06 1.06 0 0 1 .961.456 1.042 1.042 0 0 1 .065 1.057c-1.332 2.568-3.627 7.45-3.344 10.041.386 3.656 31.564 18.958 31.564 18.958M246.984 284.17s5.997-7.932.779-11.588c-5.218-3.657-4.25-4.43-4.25-4.43l21.104-1.84" stroke="#fff" stroke-linecap="round" stroke-linejoin="round" />
    <g opacity=".29" fill="#fff">
      <path opacity=".29" d="M283.888 296.538a7.698 7.698 0 0 1-1.823.573c-2.421.573-3.575-.533-3.459-2.573.109-2.436 1.88-3.668 4.001-3.519a5.132 5.132 0 0 1 1.73.326l-.38.986a4.034 4.034 0 0 0-1.321-.212 2.158 2.158 0 0 0-1.653.553 2.142 2.142 0 0 0-.517.722c-.119.274-.179.57-.177.868-.069 1.313.715 1.949 2.128 1.72a6.61 6.61 0 0 0 1.338-.379c.011.31.069.619.133.935ZM286.759 295.013c-.196.442-.392.883-.577 1.341-.576.069-1.107.144-1.655.23.831-1.903 1.661-3.64 2.48-5.267l2.076.092c.628 1.593 1.263 3.1 1.914 4.584-.576 0-1.153.029-1.73.086-.161-.389-.317-.773-.473-1.146-.68.004-1.358.031-2.035.08Zm1.839-.905c-.121-.333-.247-.665-.374-1.003-.127-.338-.208-.642-.294-.928-.127.28-.254.647-.387.934l-.484 1.048 1.539-.051ZM292.179 291.609a20.183 20.183 0 0 1 2.116 0 5.298 5.298 0 0 1 2.249.447 1 1 0 0 1 .606.94c0 .573-.675.894-1.286.997a1.323 1.323 0 0 1 .905.865c.149.435.325.859.525 1.273a39.208 39.208 0 0 0-1.638-.121 4.01 4.01 0 0 1-.45-1.031c-.161-.573-.461-.711-1.107-.739h-.484c0 .573-.058 1.146-.092 1.719h-1.592c.081-1.456.162-2.9.248-4.35Zm1.471 1.937h.628c.796 0 1.28-.189 1.297-.573.018-.384-.415-.619-1.153-.653a6.67 6.67 0 0 0-.721 0c-.005.43-.028.825-.051 1.226ZM304.006 296.968a12.57 12.57 0 0 1-2.341-.178 6.847 6.847 0 0 1-2.837-1.026 1.97 1.97 0 0 1-.934-1.719c.069-1.45 1.793-2.201 4.093-2.103.658.012 1.31.126 1.932.338-.115.298-.236.573-.357.888a4.98 4.98 0 0 0-1.626-.338c-1.321-.092-2.336.327-2.37 1.301-.035.974.859 1.57 2.156 1.776.258.052.522.069.784.052 0-.338 0-.676.029-1.014l-1.078-.138v-.831c.871.092 1.73.189 2.606.292 0 .917-.029 1.811-.057 2.7ZM311.64 295.919c-.116 2.338-1.505 3.169-3.5 2.487-1.995-.682-3.2-2.103-3.154-3.576.046-1.473 1.424-2.648 3.494-2.59 2.07.057 3.258 1.713 3.16 3.679Zm-4.988-.854a2.201 2.201 0 0 0 1.609 2.292c1.049.298 1.684-.458 1.73-1.719.052-1.175-.508-2.229-1.597-2.292-1.09-.063-1.707.642-1.742 1.719Z" />
    </g>
    <path d="m413.129 322.43-13.562-64.239 30.671-.842v-10.906h-81.534v10.906l16.347-.052-.184 2.728M414.369 257.83l-11.503 10.952" stroke="#fff" stroke-linecap="round" stroke-linejoin="round" />
    <path d="M426.467 249.469h-74.372v3.438h74.372v-3.438ZM357.815 249.469v3.432M363.535 249.469v3.432M369.255 249.469v3.432M374.975 249.469v3.432M380.695 249.469v3.432M386.415 249.469v3.432M392.141 249.469v3.432M397.861 249.469v3.432M403.581 249.469v3.432M409.301 249.469v3.432M415.021 249.469v3.432M420.741 249.469v3.432M399.568 258.192l21.173 68.01M416.185 257.733l-11.872 15.709M901.973 332h-467" stroke="#fff" stroke-linecap="round" stroke-linejoin="round" />
    <path d="m903.473 332.5 31.5 32.5" stroke="#fff" />
    <g clip-path="url(#b)" stroke="#fff" stroke-width=".945" stroke-miterlimit="10">
      <path d="m1647.03 359.046-286.14 13.731-312.17-10.659" />
      <path d="m1624.6 332.14-38.22-16.782v-13.402l-335.03-200.042-93.64-11.55-68.7 94.793 2.94 11.544.87 34.324-43.77 53.06 3.27 11.88-3.6 66.153M1251.25 102.039 1249 194.59M1240.75 107.351l-82.49-11.647M1158.26 95.704l-59.37 84.387M1251.35 101.914l-162.34 83.243M1159.41 106.405l61.82 10.961M1159.41 106.405l-50.19 68.394" />
      <path d="m1091.95 196.708 158.79-75.393 335.64 186.633" />
      <path d="m1096.2 215.663 148.3-59.675V131.33l-148.3 69.135v15.198Z" />
      <path d="m1586.38 306.535-335.42-198.616-160.76 81.283" />
      <path d="M1255.6 131.33v24.35l328.85 158.533v-6.265L1255.6 131.33ZM1276.3 165.654v-23.212M1306.59 180.262v-21.545M1333.08 193.034v-20.093M1356.45 204.297v-18.804M1377.22 214.312v-17.666M1395.8 223.265v-16.637M1412.51 231.327v-15.726M1427.63 238.614v-14.889M1441.38 245.243v-14.135M1453.92 251.29v-13.444M1465.42 256.835v-12.812M1476 261.929v-12.23M1485.76 266.638v-11.695M1494.8 270.991v-11.194M1503.19 275.036v-10.729M1511.01 278.806v-10.303M1518.3 282.323v-9.906M1525.12 285.613v-9.528M1531.51 288.691v-9.179M1537.52 291.591v-8.85M1543.17 294.313v-8.535M1548.49 296.876v-8.24M1553.53 299.303v-7.966M1558.29 301.6v-7.705M1562.8 303.773v-7.459M1567.07 305.836v-7.225M1571.13 307.79v-6.992M1575 309.661v-6.786M1578.68 311.43v-6.581M1582.19 313.123v-6.389M1312.11 222.772l46.39-11.846 227.88 107.215" />
      <path d="m1316.69 234.295 40.66-9.638 228.16 94.951" />
      <path d="m1314.23 227.92 43.12-10.132 228.57 101.046" />
      <path d="m1356.45 241.815 232.87 84.004v26.914l-232.87-19.394v-91.524ZM1176.37 337.302l174.18-3.202v-92.285l-172.58 32.83-1.6 62.657ZM1049.95 339.544l72.01-1.262M1052.18 298.577l71.08-13.526M1092.82 231.025l48.62-16.809M1353.47 212.208l-104.03-35.332-86.88 30.033M1141.44 219.042l-48.33 16.474-42.83 53.025" />
      <path d="m1343.44 214.772-94-32.556-86.88 29.622M1141.44 229.154l-51.24 16.254-39.02 46.41" />
      <path d="m1317.36 221.428-67.92-26.53-86.88 27.558M1162.56 275.529V203.46l-21.12 7.795v68.024" />
      <path d="m1170.18 365.963 2.94-92.312-49.68 8.829-2.17 81.776M985.466 262.813h.411v.41h-.411v-.41ZM1375.91 334.95v-86.115M1401.45 337.082v-79.033M1424.55 339.009v-72.624M1445.53 340.757v-66.811M1464.67 342.347v-61.491M1482.2 343.807v-56.63M1498.33 345.151v-52.155M1513.2 346.392v-48.035M1526.96 347.536V303.32M1539.73 348.599v-40.672M1551.62 349.593v-37.374M1562.71 350.519v-34.297M1573.09 351.382v-31.417M1582.8 352.191v-28.723M1333.08 334.422V245.14M1291.19 335.19v-82.084M1257.14 335.814v-76.23M1228.93 336.328v-71.376M1205.17 336.767v-67.298M1184.88 337.137v-63.808M1116.02 338.385v-51.956M1106.45 338.556v-50.31M1097.81 338.707v-48.816M1089.96 338.844v-47.459M1082.8 338.967V292.75M1076.25 339.084v-45.087M1070.23 339.187v-44.045M1064.68 339.283v-43.085M1059.54 339.372v-42.194M1054.78 339.461v-41.378M1049.52 349.024l72.16-.308M1593.13 356.003l-238.66-8.288-183.73.788M1593.13 358.286l-239.66.761-182.96-3.428M1049.69 353.356l71.83 1.344M1666.95 366.571l-309.75 18.003-302.69-16.807" />
    </g>
    <path d="M729.093 276.725c-.369-.156-.746-.297-1.122-.439M726.152 275.683a25.625 25.625 0 0 0-2.316-.582M717.719 274.455a29.118 29.118 0 0 0-6.117.646 25.71 25.71 0 0 0-2.316.582 29.34 29.34 0 0 0-2.941 1.042 34.34 34.34 0 0 0-14.663 11.904c-.341.475-.711.965-.995 1.461-.163.256-.327.511-.483.766a36.139 36.139 0 0 0-.902 1.547c-.149.262-.292.532-.441.801a38.332 38.332 0 0 0-.803 1.625 20.534 20.534 0 0 0-.71 1.674c-.234.56-.462 1.135-.668 1.717-.106.29-.213.581-.312.879a41.554 41.554 0 0 0-1.421 5.292 3.99 3.99 0 0 0-.086.419 37.306 37.306 0 0 0-.397 2.397c0 .156-.05.32-.064.476a36.872 36.872 0 0 0-.249 2.554 41.67 41.67 0 0 0-.114 3.135" stroke="#fff" stroke-linecap="round" stroke-linejoin="round" />
    <path d="M818.523 313.4v10.528h-67.065v-10.542c0-1.057-.035-2.128-.114-3.135a36.875 36.875 0 0 0-.248-2.554c0-.156 0-.319-.064-.475a37.93 37.93 0 0 0-.398-2.398 3.986 3.986 0 0 0-.085-.419 41.89 41.89 0 0 0-1.421-5.292c-.1-.298-.206-.588-.313-.879a32.668 32.668 0 0 0-.668-1.717c-.234-.567-.483-1.128-.71-1.674a38.936 38.936 0 0 0-.803-1.625c-.149-.269-.291-.539-.44-.801a37.242 37.242 0 0 0-1.386-2.313 34.698 34.698 0 0 0-.994-1.461 34.356 34.356 0 0 0-14.664-11.904c-.369-.156-.746-.297-1.122-.439a28.464 28.464 0 0 0-1.819-.603 25.71 25.71 0 0 0-2.316-.582 29.111 29.111 0 0 0-6.117-.646h67.066c18.57-.014 33.681 17.423 33.681 38.931Z" stroke="#fff" stroke-linecap="round" stroke-linejoin="round" />
    <path opacity=".25" d="M818.523 313.4v10.528h-67.065v-10.542c0-1.057-.035-2.128-.114-3.135a36.875 36.875 0 0 0-.248-2.554c0-.156 0-.319-.064-.475a37.93 37.93 0 0 0-.398-2.398 3.986 3.986 0 0 0-.085-.419 41.89 41.89 0 0 0-1.421-5.292c-.1-.298-.206-.588-.313-.879a32.668 32.668 0 0 0-.668-1.717c-.234-.567-.483-1.128-.71-1.674a38.936 38.936 0 0 0-.803-1.625c-.149-.269-.291-.539-.44-.801a37.242 37.242 0 0 0-1.386-2.313 34.698 34.698 0 0 0-.994-1.461 34.356 34.356 0 0 0-14.664-11.904c-.369-.156-.746-.297-1.122-.439a28.464 28.464 0 0 0-1.819-.603 25.71 25.71 0 0 0-2.316-.582 29.111 29.111 0 0 0-6.117-.646h67.066c18.57-.014 33.681 17.423 33.681 38.931Z" fill="#fff" />
    <path d="M722.323 313.386H751.458M751.465 323.928h-67.492v-10.542h29.15" stroke="#fff" stroke-linecap="round" stroke-linejoin="round" />
    <path d="M722.337 306.966h-9.228v16.962h9.228v-16.962Z" stroke="#fff" stroke-linecap="round" stroke-linejoin="round" />
    <path opacity=".25" d="M722.337 306.966h-9.228v16.962h9.228v-16.962Z" fill="#fff" />
    <path d="M818.523 323.928H683.981v7.973h134.542v-7.973ZM706.388 296.496h-7.865v7.852h7.865v-7.852ZM735.338 296.496h-7.864v7.852h7.864v-7.852ZM131.795 290.173v18.791H114.87v-18.791l9.541-12.215 7.384 12.215Z" stroke="#fff" stroke-linecap="round" stroke-linejoin="round" />
    <path d="M146.475 290.173v18.791h-14.68v-18.791l8.01-12.215 6.67 12.215ZM161.765 290.173v18.791h-15.29v-18.791l4.512-12.215 10.778 12.215Z" stroke="#fff" stroke-linecap="round" stroke-linejoin="round" />
    <path opacity=".25" d="M131.795 290.173v18.791H114.87v-18.791l9.541-12.215 7.384 12.215Z" fill="#fff" />
    <path opacity=".25" d="M146.475 290.173v18.791h-14.68v-18.791l8.01-12.215 6.67 12.215ZM161.765 290.173v18.791h-15.29v-18.791l4.512-12.215 10.778 12.215Z" fill="#fff" />
    <path d="M114.87 290.173h46.89l-3.591-12.215h-38.782l-4.517 12.215Z" stroke="#fff" stroke-linecap="round" stroke-linejoin="round" />
    <path d="M119.485 277.958h38.684v-4.619h-38.684v4.619ZM119.485 273.334h38.684v-3.278h-38.684v3.278ZM128.82 256.085h7.89v-2.874h-7.89v2.874Z" stroke="#fff" stroke-linecap="round" stroke-linejoin="round" />
    <path d="M119.485 251.549h3.526v4.537h33.103v13.971h-33.103v3.277h-12.038v-21.785h8.512ZM114.87 318v-9.036h46.89V318" stroke="#fff" stroke-linecap="round" stroke-linejoin="round" />
    <path d="M112.418 251.543h7.786s3.711-17.384 3.94-16.13c.229 1.254 7.247 17.794 7.247 17.794h3.215l-5.111-17.859 1.591-1.418h-14.571l-.114 1.254 4.67.573-8.653 15.786Z" stroke="#fff" stroke-linecap="round" stroke-linejoin="round" />
    <path d="M127.648 233.935v-5.017h-6.659v5.017M122.351 228.918v-2.051h3.929v2.051M156.349 258.648c.142-.414 72.926-104.787 72.926-104.787l6.97 2.928-66.093 101.859h-13.803ZM160.812 258.654l71.618-103.468M231.651 154.494l19.688-27.282V124l4.741 2.514-2.507 1.538-18.385 27.931" stroke="#fff" stroke-linecap="round" stroke-linejoin="round" />
    <path d="M127.621 231.427s58.366-18.83 109.474-84.524" stroke="#fff" stroke-linecap="round" stroke-linejoin="round" />
    <path d="M127.621 231.427s9.067 16.49 109.474-84.524" stroke="#fff" stroke-linecap="round" stroke-linejoin="round" />
    <path d="M127.621 231.427s51.184 0 109.474-84.524M166.55 270.056h-10.435v-11.402h14.042v7.793a3.608 3.608 0 0 1-3.607 3.609v0Z" stroke="#fff" stroke-linecap="round" stroke-linejoin="round" />
    <path opacity=".25" d="M119.485 251.549h3.526v4.537h33.103v13.971h-33.103v3.277h-12.038v-21.785h8.512ZM166.55 270.056h-10.435v-11.402h14.042v7.793a3.608 3.608 0 0 1-3.607 3.609Z" fill="#fff" />
    <path d="M230.065 166.305c-.141.218-12.304 4.057-12.304 4.057l.752 13.748-15.312 7.143v16.823l-16.429 6.762 2.67 14.08-18.032 7.983 4.905 12.226-20.222 9.521M252.189 183.292V157.88M249.966 157.88v25.412M252.189 151.489v-21.245l-2.223 3.277v17.968" stroke="#fff" stroke-linecap="round" stroke-linejoin="round" />
    <path d="M251.083 158.071a3.385 3.385 0 0 0 3.384-3.387 3.385 3.385 0 1 0-6.768 0 3.385 3.385 0 0 0 3.384 3.387ZM247.508 186.002h7.182v-2.71h-7.182v2.71ZM249.524 190.299h3.15v-4.297h-3.15v4.297ZM245.225 193.991h11.748v-3.692h-11.748v3.692Z" stroke="#fff" stroke-linecap="round" stroke-linejoin="round" />
    <path d="M250.674 194.88a.757.757 0 0 1 1.243-.704c1.09.938 2.245 2.405 2.098 4.325-.273 3.533-5.826 4.493-7.117.943 0 0 2.817.033 3.585-2.012.28-.821.345-1.699.191-2.552v0Z" stroke="#fff" stroke-linecap="round" stroke-linejoin="round" />
    <g clip-path="url(#c)" stroke="#fff" stroke-width=".75" stroke-miterlimit="10">
      <path d="M-343.336 426.746c119.468 0 119.468 10.99 238.935 10.99 119.468 0 119.468-10.99 238.935-10.99s119.467 10.99 238.935 10.99c119.467 0 119.467-10.99 238.948-10.99 119.48 0 119.467 10.99 238.935 10.99 119.467 0 119.467-10.99 238.938-10.99 119.46 0 119.46 10.99 238.93 10.99 119.47 0 119.47-10.99 238.94-10.99 119.46 0 119.46 10.99 238.93 10.99" />
      <path d="M-589.964 428.991c119.468 0 119.468 10.983 238.935 10.983s119.468-10.983 238.935-10.983 119.467 10.983 238.935 10.983c119.467 0 119.467-10.983 238.935-10.983 119.467 0 119.467 10.983 238.934 10.983 119.468 0 119.481-10.983 238.948-10.983 119.468 0 119.468 10.983 238.922 10.983 119.45 0 119.47-10.983 238.93-10.983 119.47 0 119.49 10.983 238.95 10.983 119.47 0 119.47-10.983 238.94-10.983M-462.685 418c119.467 0 119.467 10.991 238.934 10.991 119.468 0 119.468-10.991 238.935-10.991 119.468 0 119.468 10.991 238.935 10.991S373.587 418 493.054 418s119.467 10.991 238.935 10.991c119.467 0 119.467-10.991 238.935-10.991 119.466 0 119.466 10.991 238.936 10.991 119.47 0 119.47-10.991 238.93-10.991 119.47 0 119.47 10.991 238.95 10.991 119.48 0 119.47-10.991 238.94-10.991" />
      <path d="M-543.15 418c119.467 0 119.467 10.991 238.935 10.991 119.467 0 119.467-10.991 238.934-10.991 119.468 0 119.468 10.991 238.935 10.991 119.468 0 119.468-10.991 238.935-10.991s119.467 10.991 238.935 10.991c119.467 0 119.467-10.991 238.935-10.991 119.471 0 119.471 10.991 238.931 10.991 119.47 0 119.47-10.991 238.94-10.991s119.47 10.991 238.93 10.991c119.47 0 119.47-10.991 238.94-10.991M-474.277 445.86c119.467 0 119.467 10.991 238.934 10.991 119.468 0 119.468-10.991 238.935-10.991s119.468 10.991 238.935 10.991 119.467-10.991 238.935-10.991c119.467 0 119.467 10.991 238.935 10.991 119.467 0 119.48-10.991 238.947-10.991 119.466 0 119.466 10.991 238.926 10.991 119.45 0 119.46-10.991 238.93-10.991 119.47 0 119.48 10.991 238.95 10.991 119.47 0 119.47-10.991 238.93-10.991" />
      <path d="M-609.027 449.829c119.468 0 119.468 10.991 238.935 10.991 119.468 0 119.468-10.991 238.935-10.991s119.468 10.991 238.935 10.991 119.467-10.991 238.935-10.991c119.467 0 119.467 10.991 238.934 10.991 119.468 0 119.468-10.991 238.948-10.991 119.481 0 119.455 10.991 238.925 10.991 119.46 0 119.46-10.991 238.93-10.991 119.47 0 119.47 10.991 238.95 10.991 119.48 0 119.47-10.991 238.93-10.991M-462.685 470.188c119.467 0 119.467 10.991 238.934 10.991 119.468 0 119.468-10.991 238.935-10.991 119.468 0 119.468 10.991 238.935 10.991s119.468-10.991 238.935-10.991 119.467 10.991 238.935 10.991c119.467 0 119.467-10.991 238.935-10.991 119.466 0 119.466 10.991 238.936 10.991 119.47 0 119.47-10.991 238.93-10.991 119.47 0 119.47 10.991 238.95 10.991 119.48 0 119.47-10.991 238.94-10.991" />
    </g>
    <g clip-path="url(#d)" stroke="#fff" stroke-width=".75" stroke-miterlimit="10">
      <path d="M-545.734 396.746c131.878 0 131.878 10.99 263.756 10.99s131.878-10.99 263.756-10.99c131.879 0 131.878 10.99 263.757 10.99 131.878 0 131.878-10.99 263.771-10.99 131.892 0 131.878 10.99 263.756 10.99s131.878-10.99 263.758-10.99 131.88 10.99 263.75 10.99c131.88 0 131.88-10.99 263.76-10.99s131.88 10.99 263.76 10.99" />
      <path d="M-817.983 398.991c131.878 0 131.878 10.983 263.756 10.983s131.878-10.983 263.757-10.983c131.878 0 131.878 10.983 263.756 10.983s131.878-10.983 263.756-10.983c131.879 0 131.878 10.983 263.757 10.983 131.878 0 131.892-10.983 263.771-10.983 131.878 0 131.878 10.983 263.74 10.983 131.87 0 131.88-10.983 263.76-10.983s131.89 10.983 263.77 10.983 131.88-10.983 263.76-10.983M-677.483 388c131.879 0 131.878 10.991 263.757 10.991 131.878 0 131.878-10.991 263.756-10.991s131.878 10.991 263.756 10.991c131.879 0 131.879-10.991 263.757-10.991 131.878 0 131.878 10.991 263.756 10.991 131.879 0 131.879-10.991 263.757-10.991 131.874 0 131.874 10.991 263.754 10.991 131.88 0 131.88-10.991 263.76-10.991s131.88 10.991 263.77 10.991S1828.22 388 1960.1 388" />
      <path d="M-766.306 388c131.878 0 131.878 10.991 263.756 10.991S-370.672 388-238.794 388s131.878 10.991 263.756 10.991C156.841 398.991 156.841 388 288.72 388c131.878 0 131.878 10.991 263.756 10.991 131.879 0 131.879-10.991 263.757-10.991 131.878 0 131.878 10.991 263.758 10.991S1211.87 388 1343.74 388c131.88 0 131.88 10.991 263.76 10.991S1739.38 388 1871.26 388M-690.279 415.86c131.878 0 131.878 10.991 263.756 10.991 131.879 0 131.878-10.991 263.757-10.991 131.878 0 131.878 10.991 263.756 10.991s131.878-10.991 263.756-10.991 131.879 10.991 263.757 10.991c131.878 0 131.892-10.991 263.771-10.991 131.876 0 131.876 10.991 263.746 10.991 131.86 0 131.87-10.991 263.75-10.991s131.89 10.991 263.77 10.991 131.88-10.991 263.76-10.991" />
      <path d="M-839.027 419.829c131.879 0 131.879 10.991 263.757 10.991 131.878 0 131.878-10.991 263.756-10.991s131.878 10.991 263.757 10.991c131.878 0 131.878-10.991 263.756-10.991s131.878 10.991 263.756 10.991c131.879 0 131.878-10.991 263.771-10.991 131.893 0 131.864 10.991 263.744 10.991 131.88 0 131.88-10.991 263.75-10.991 131.88 0 131.88 10.991 263.78 10.991 131.89 0 131.87-10.991 263.75-10.991M-677.483 440.188c131.879 0 131.878 10.991 263.757 10.991 131.878 0 131.878-10.991 263.756-10.991s131.878 10.991 263.756 10.991c131.879 0 131.879-10.991 263.757-10.991 131.878 0 131.878 10.991 263.756 10.991 131.879 0 131.879-10.991 263.757-10.991 131.874 0 131.874 10.991 263.754 10.991 131.88 0 131.88-10.991 263.76-10.991s131.88 10.991 263.77 10.991 131.88-10.991 263.76-10.991" />
    </g>
    <g clip-path="url(#e)" stroke="#fff" stroke-width=".75" stroke-miterlimit="10">
      <path d="M-1289.58 367.746c124.76 0 124.76 10.99 249.52 10.99 124.751 0 124.751-10.99 249.507-10.99 124.755 0 124.755 10.99 249.511 10.99 124.755 0 124.755-10.99 249.524-10.99 124.77 0 124.756 10.99 249.511 10.99 124.756 0 124.756-10.99 249.511-10.99 124.756 0 124.756 10.99 249.511 10.99 124.756 0 124.756-10.99 249.511-10.99 124.756 0 124.756 10.99 249.511 10.99" />
      <path d="M-1238.12 369.991c124.76 0 124.76 10.983 249.511 10.983 124.755 0 124.756-10.983 249.511-10.983 124.756 0 124.755 10.983 249.511 10.983 124.755 0 124.755-10.983 249.511-10.983 124.755 0 124.755 10.983 249.51 10.983 124.756 0 124.77-10.983 249.526-10.983 124.755 0 124.755 10.983 249.497 10.983 124.742 0 124.755-10.983 249.511-10.983 124.755 0 124.769 10.983 249.522 10.983 124.76 0 124.76-10.983 249.51-10.983" />
      <path d="M-1558.23 369c124.75 0 124.75 10.991 249.51 10.991 124.75 0 124.75-10.991 249.51-10.991 124.753 0 124.753 10.991 249.509 10.991 124.755 0 124.755-10.991 249.511-10.991 124.755 0 124.755 10.991 249.511 10.991 124.755 0 124.755-10.991 249.51-10.991 124.756 0 124.756 10.991 249.512 10.991 124.755 0 124.755-10.991 249.511-10.991 124.755 0 124.755 10.991 249.511 10.991C812.12 379.991 812.12 369 936.876 369M-1117.31 386.86c124.752 0 124.753 10.991 249.508 10.991 124.756 0 124.755-10.991 249.511-10.991 124.755 0 124.755 10.991 249.511 10.991 124.755 0 124.755-10.991 249.511-10.991 124.755 0 124.755 10.991 249.511 10.991 124.755 0 124.769-10.991 249.524-10.991 124.756 0 124.756 10.991 249.497 10.991 124.742 0 124.756-10.991 249.511-10.991 124.756 0 124.766 10.991 249.526 10.991 124.75 0 124.75-10.991 249.51-10.991" />
      <path d="M-1258.03 390.829c124.76 0 124.76 10.991 249.51 10.991 124.76 0 124.76-10.991 249.515-10.991 124.756 0 124.756 10.991 249.511 10.991 124.756 0 124.756-10.991 249.511-10.991s124.756 10.991 249.511 10.991c124.756 0 124.755-10.991 249.525-10.991 124.769 0 124.741 10.991 249.497 10.991 124.755 0 124.755-10.991 249.511-10.991 124.755 0 124.755 10.991 249.524 10.991 124.765 0 124.755-10.991 249.515-10.991M-1105.21 411.188c124.758 0 124.758 10.991 249.513 10.991 124.756 0 124.756-10.991 249.511-10.991 124.756 0 124.756 10.991 249.511 10.991 124.756 0 124.756-10.991 249.511-10.991 124.756 0 124.756 10.991 249.511 10.991 124.756 0 124.756-10.991 249.511-10.991 124.756 0 124.756 10.991 249.511 10.991s124.755-10.991 249.511-10.991c124.76 0 124.76 10.991 249.52 10.991 124.77 0 124.76-10.991 249.52-10.991" />
    </g>
    <path d="m1360.79 419-426.22-48-1-9 425.22 25 256.13-16v18l-254.13 30Z" fill="#111827" />
    <path d="m933.57 363 422.22 55 326.17-42M540.473 332.5h12v32h-12zM510.473 332.5h12v32h-12zM480.473 332.5h12v32h-12zM567.473 332.5h12v32h-12zM594.473 332.5h12v32h-12zM621.473 332.5h12v32h-12zM648.473 332.5h12v32h-12zM675.473 332.5h12v32h-12zM702.473 332.5h12v32h-12zM729.473 332.5h12v32h-12zM756.473 332.5h12v32h-12zM783.473 332.5h12v32h-12zM810.473 332.5h12v32h-12zM837.473 332.5h12v32h-12zM864.473 332.5h12v32h-12zM891.473 332.5h12v32h-12zM924.973 355.198v9.302h-6.5v-16.236l6.5 6.934Z" stroke="#fff" />
    <path d="m504.124 331.829 2.894-.076-.336-31.434-2.894.076.336 31.434Z" stroke="#fff" stroke-linecap="round" stroke-linejoin="round" />
    <path d="m497.289 303.816 11.481-.298.068 2.631-11.481.298-.068-2.631ZM559.738 332.512l2.895-.076-.337-49.799-2.894.075.336 49.8Z" stroke="#fff" stroke-linecap="round" stroke-linejoin="round" />
    <path d="m552.906 286.131 11.481-.298.068 2.631-11.48.298-.069-2.631Z" stroke="#fff" stroke-linecap="round" stroke-linejoin="round" />
    <path d="M1048.97 362H932.473" stroke="#fff" />
    <path fill="url(#f)" fill-opacity=".7" d="M.973 80h1598v435H.973z" />
    <path fill="url(#g)" d="M1359 66h400v447h-400z" />
    <path transform="matrix(-1 0 0 1 240 66)" fill="url(#h)" d="M0 0h400v447H0z" />
  </g>
  <defs>
    <clipPath id="a">
      <path fill="#fff" transform="translate(-211.027)" d="M0 0h2022.05v672.918H0z" />
    </clipPath>
    <clipPath id="b">
      <path fill="#fff" transform="matrix(-1 0 0 1 1758.38 90)" d="M0 0h814.405v462H0z" />
    </clipPath>
    <clipPath id="c">
      <path fill="#fff" transform="translate(-609.027 418)" d="M0 0h2214v63H0z" />
    </clipPath>
    <clipPath id="d">
      <path fill="#fff" transform="translate(-839.027 388)" d="M0 0h2444v63H0z" />
    </clipPath>
    <clipPath id="e">
      <path fill="#fff" transform="translate(-1258.03 359)" d="M0 0h2312v63H0z" />
    </clipPath>
    <linearGradient id="f" x1="799.973" y1="80" x2="799.973" y2="515" gradientUnits="userSpaceOnUse">
      <stop offset=".031" stop-color="#111827" stop-opacity="0" />
      <stop offset=".745" stop-color="#111827" />
    </linearGradient>
    <linearGradient id="g" x1="1367.83" y1="289.5" x2="1759" y2="289.5" gradientUnits="userSpaceOnUse">
      <stop offset=".031" stop-color="#111827" stop-opacity="0" />
      <stop offset=".552" stop-color="#111827" />
    </linearGradient>
    <linearGradient id="h" x1="8.833" y1="223.5" x2="400" y2="223.5" gradientUnits="userSpaceOnUse">
      <stop offset=".031" stop-color="#111827" stop-opacity="0" />
      <stop offset=".552" stop-color="#111827" />
    </linearGradient>
  </defs>
</svg>