<svg viewBox="0 0 224 50" fill="none" xmlns="http://www.w3.org/2000/svg"><g clip-path="url(#a)"><path d="M68.223 17.005H73.5a5.435 5.435 0 1 1 0 10.87H71.81v5.142H68.2l.023-16.012Zm5.232 7.51a2.064 2.064 0 1 0 0-4.127h-1.624v4.127h1.624ZM102.949 26.522h-.045v6.495h-3.609V17.005h6.044a4.763 4.763 0 0 1 4.162 7.11 4.762 4.762 0 0 1-2.47 2.114l5.215 6.766h-4.313l-4.984-6.473Zm1.984-3.044a1.59 1.59 0 0 0 1.692-1.58 1.605 1.605 0 0 0-1.692-1.6h-2.029v3.18h2.029ZM116.887 20.568h-3.84v-3.563h11.305v3.563h-3.857v12.455h-3.608V20.568ZM126.381 30.057l2.729-2.255c.699 1.128 1.85 1.985 2.955 1.985s1.533-.406 1.533-1.128c0-.722-.518-1.173-1.872-1.782l-.902-.406c-2.413-1.082-3.743-2.864-3.743-5.029 0-2.82 2.322-4.623 4.871-4.623a5.282 5.282 0 0 1 4.511 2.007l-2.436 2.57c-.812-.991-1.308-1.194-2.052-1.194a1.129 1.129 0 0 0-1.241 1.127c0 .835.699 1.286 2.165 1.94l.857.383c2.21.993 3.496 2.594 3.496 4.804 0 2.887-2.12 4.759-5.075 4.759-2.571 0-4.645-1.06-5.751-3.135M144.334 17.005h-3.609v16.018h3.609V17.005ZM174.481 25.012a8.197 8.197 0 0 1 5.054-7.573 8.19 8.19 0 0 1 11.173 5.966 8.188 8.188 0 0 1-3.482 8.412 8.195 8.195 0 0 1-4.552 1.381 8.205 8.205 0 0 1-8.193-8.186Zm12.748 0a4.556 4.556 0 0 0-2.92-4.105 4.562 4.562 0 1 0-1.635 8.818 4.608 4.608 0 0 0 4.555-4.713ZM206.935 23.5v9.518h-3.608v-9.585c0-1.94-1.196-3.158-2.955-3.158-1.759 0-2.954 1.218-2.954 3.158v9.585h-3.592V23.5c0-4.014 2.729-6.675 6.569-6.675 3.839 0 6.563 2.661 6.563 6.675M164.857 16.825a6.494 6.494 0 0 0-4.759 1.877 6.514 6.514 0 0 0-4.764-1.878c-3.84 0-6.569 2.662-6.569 6.676v9.518h3.609v-9.585c0-1.94 1.195-3.158 2.96-3.158s2.954 1.218 2.954 3.158v9.585h3.614v-9.585c0-1.94 1.196-3.158 2.955-3.158 1.759 0 2.96 1.218 2.96 3.158v9.585h3.608V23.5c0-4.014-2.729-6.675-6.568-6.675ZM219.666 17.005v4.804c0 1.94-1.201 3.157-2.96 3.157s-2.954-1.218-2.954-3.157v-4.804h-3.609v4.759c0 3.354 1.9 5.756 4.759 6.467v4.786h3.608v-4.786c2.859-.71 4.765-3.113 4.765-6.467v-4.76h-3.609ZM88.633 16.825c-3.834 0-6.563 2.661-6.563 6.675v9.518h3.609v-5.142h5.909v5.142h3.608V23.5c0-4.014-2.729-6.675-6.563-6.675ZM85.68 24.92v-1.466c0-1.94 1.195-3.157 2.954-3.157 1.76 0 2.955 1.218 2.955 3.157v1.466h-5.91Z" fill="#4D4D4F"/><path d="M17.721 42.704a17.704 17.704 0 1 1-.074-35.407 17.704 17.704 0 0 1 .074 35.407Zm-.056-33.711a16.013 16.013 0 1 0 13.892 8 15.888 15.888 0 0 0-13.892-8Z" fill="#636466"/><path d="M21.86 35.397a17.693 17.693 0 1 1 15.358-8.846 17.57 17.57 0 0 1-15.359 8.846Zm-7.979-3.828A16.007 16.007 0 1 0 29.886 3.841 16.007 16.007 0 0 0 13.88 31.569Z" fill="#134598"/><path d="M30.317 35.403a17.699 17.699 0 1 1 17.698-17.699 17.716 17.716 0 0 1-17.698 17.699Zm0-33.711A16.013 16.013 0 1 0 46.33 17.704 16.03 16.03 0 0 0 30.317 1.692Z" fill="#4D4D4F"/><path d="M34.574 42.704a17.704 17.704 0 1 1-.063-35.409 17.704 17.704 0 0 1 .063 35.41ZM26.539 11.13a16.013 16.013 0 1 0 21.877 5.858 16.03 16.03 0 0 0-21.877-5.858Z" fill="#1372D2"/><path d="M30.317 49.995a17.699 17.699 0 1 1 15.353-8.847 17.551 17.551 0 0 1-15.353 8.847Zm.056-33.712a16.018 16.018 0 1 0-.07 32.037 16.018 16.018 0 0 0 .07-32.037Z" fill="#8A8C8E"/><path d="M21.905 50a17.698 17.698 0 1 1 12.508-5.18 17.721 17.721 0 0 1-12.508 5.191V50Zm0-33.7a16.012 16.012 0 1 0 16.012 16.013A16.029 16.029 0 0 0 21.905 16.3Z" fill="#1557AA"/></g><defs><clipPath id="a"><path fill="#fff" d="M0 0h223.275v50H0z"/></clipPath></defs></svg>