<svg viewBox="0 0 342 80" fill="none" xmlns="http://www.w3.org/2000/svg"><g clip-path="url(#a)" fill="#fff"><path d="M4.867 50.401A26.178 26.178 0 0 1 2.59 39.713c0-3.692.777-7.339 2.276-10.688-.064-1.99.067-3.982.393-5.945C2.15 27.477.342 32.714.054 38.155a28.928 28.928 0 0 0 3.582 15.574 28.75 28.75 0 0 0 1.645 2.603 30.55 30.55 0 0 1-.432-5.063V50.4M38.268 14.103c-.255-.116-.51-.237-.769-.349l-.458-.192a36.72 36.72 0 0 0-1.1-.42l-.407-.144a19.645 19.645 0 0 0-1.49-.447l-.289-.072a38.152 38.152 0 0 0-1.252-.295l-.484-.098a32.29 32.29 0 0 0-1.179-.197l-.397-.058c-.199-.027-.397-.04-.596-.063a24.588 24.588 0 0 0-2.025 2.537c2.688.088 5.344.629 7.863 1.6a29.482 29.482 0 0 1 2.591-1.788M51.408 42.971a23.504 23.504 0 0 0 2.008-3.005c.052-.099.1-.197.151-.291a23.797 23.797 0 0 0-2.159-3.283 26.209 26.209 0 0 1 0 6.58ZM47.81 57.795a26.44 26.44 0 0 1-1.342.036c-.713 0-1.42-.036-2.12-.09a24.66 24.66 0 0 1-2.867 2.519c.837.493 1.702.933 2.59 1.319a27.45 27.45 0 0 0 3.74-3.784ZM22.29 67.304a30.518 30.518 0 0 1-1.688-3.13 24.211 24.211 0 0 1-8.403-4.304 24.091 24.091 0 0 0 2.392 4.72 26.643 26.643 0 0 0 7.69 2.714M34.973 63.744c-.458.16-.916.304-1.378.447l-.41.112c-.34.09-.686.174-1.032.25l-.432.09c-.462.09-.924.174-1.386.237h-.026c-.475.063-.95.107-1.425.143-.138 0-.28 0-.431.027-.216 0-.432.027-.653.031a23.02 23.02 0 0 0 2.021 2.536 26.257 26.257 0 0 0 8.43-2.361 28.089 28.089 0 0 1-2.591-1.79c-.238.094-.475.188-.717.273M46.515 21.497c.432 0 .864 0 1.27.036-.142-.175-.276-.358-.432-.528l-.073-.08c-.337-.394-.687-.77-1.045-1.141l-.35-.35c-.29-.285-.583-.567-.864-.835a7.585 7.585 0 0 0-.345-.314c-.199-.178-.406-.344-.613-.514-.89.392-1.755.84-2.591 1.342a25.372 25.372 0 0 1 2.863 2.491c.72-.053 1.446-.09 2.159-.09M12.173 19.538a23.923 23.923 0 0 1 8.438-4.348 29.465 29.465 0 0 1 1.727-3.13h-.047c-.337.062-.674.129-1.011.205l-.173.04c-.375.09-.755.188-1.131.295l-.28.08c-.346.104-.687.211-1.029.327l-.129.04c-.371.13-.747.273-1.118.421l-.273.112c-.354.143-.708.295-1.057.447l-.07.032c-.37.17-.734.353-1.096.545l-.268.143-.052.027c-.31.474-.609.953-.863 1.45a24.163 24.163 0 0 0-1.568 3.314ZM59.068 37.608a28.54 28.54 0 0 0 1.296-5.25 22.677 22.677 0 0 0-2.397-1.665 26.065 26.065 0 0 1-.665 3.834c.647.99 1.237 2.02 1.766 3.081ZM12.682 41.455c-.438 1-.81 2.03-1.11 3.082a27.408 27.408 0 0 0 6.184 6.379c.008-1.077.075-2.152.199-3.221a24.905 24.905 0 0 1-5.272-6.24ZM60.52 25.321a28.98 28.98 0 0 0-2.238-8.713 22.4 22.4 0 0 0-3.13-.555 26.36 26.36 0 0 1 2.59 7.846c.95.422 1.877.896 2.777 1.422ZM27.07 52.593c-.431-.12-.863-.255-1.295-.403l-.16-.062c-.405-.144-.807-.3-1.209-.448l-.431-.183c-.152-.067-.307-.125-.458-.197 0 .996.064 1.992.19 2.98a26.479 26.479 0 0 0 5.03 1.466c-.241-.389-.474-.782-.699-1.185a31.565 31.565 0 0 1-.989-1.95M44.145 5.175l.384.193c.432.228.864.447 1.295.72a24.429 24.429 0 0 1 4.975 3.931c.691-.053 1.386-.085 2.081-.085.467 0 .929 0 1.395.04a27.146 27.146 0 0 0-6.153-5.564 20.279 20.279 0 0 0-1.654-.071 22.732 22.732 0 0 0-3.51.277l.202.098c.328.144.657.3.985.448"/><path d="m35.534.072-.47-.027c-.389-.021-.778-.035-1.166-.04h-.894c-.389 0-.782 0-1.17.049h-.035c-.384.027-.764.062-1.144.107l-.303.036c-.388.05-.781.103-1.17.17-.385.065-.77.141-1.153.228l-.298.067A26.567 26.567 0 0 0 17.067 5.79a27.627 27.627 0 0 0-6.967 8.25 29.713 29.713 0 0 0-1.351 2.774 28.27 28.27 0 0 0-1.214 3.444c0 .072-.039.148-.056.224a28.483 28.483 0 0 0-.911 5.112l-.026.269c-.085 1.15-.1 2.305-.047 3.457.09 2.038.39 4.059.898 6.03.198.764.432 1.511.686 2.236a29.887 29.887 0 0 1 1.775-3.082 26.308 26.308 0 0 1-.609-9.71 25.7 25.7 0 0 1 .61-3.185 25.86 25.86 0 0 1 2.482-6.244c.366-.66.757-1.292 1.175-1.897 3.293-4.89 8.154-8.414 13.718-9.943.476-.13.95-.242 1.43-.345l.432-.085c.354-.071.712-.13 1.066-.183l.432-.063c.285-.035.57-.067.864-.09A28.304 28.304 0 0 1 36.6.153C36.26.116 35.919.076 35.578.05M21.604 36.383a28.54 28.54 0 0 1 1.136-1.86 25.685 25.685 0 0 1-.67-3.812c-.832.5-1.633 1.054-2.396 1.66a28.644 28.644 0 0 0 1.295 5.228c.207-.406.432-.814.643-1.216M54.426 41.428c-.108.18-.207.358-.315.533-.039.058-.078.111-.112.17l-.25.375a24.23 24.23 0 0 1-.657.944l-.26.353c-.306.403-.62.797-.945 1.177l-.065.067c-.306.358-.626.702-.95 1.033l-.064.076-.246.242c-.264.26-.532.514-.804.76l-.306.282c-.324.282-.652.56-.985.823l-.138.107-.13.099c-.345.264-.695.519-1.049.76l-.367.246a22.32 22.32 0 0 1-.915.577l-.342.206c-.431.237-.833.447-1.26.68l-.195.094c-.368.179-.74.349-1.114.51h-.03a22.01 22.01 0 0 0 3.54.286h.325c.432 0 .863-.027 1.295-.058.285-.193.57-.39.864-.59a27.085 27.085 0 0 0 4.154-3.66c.813-.88 1.57-1.814 2.267-2.795.03-.17.052-.34.078-.514a23.78 23.78 0 0 0-1.032-2.787M70.2 34.518c.65.997 1.24 2.034 1.771 3.104a28.693 28.693 0 0 0 1.576-8.31c-.237-.51-.488-1.02-.768-1.517a23.254 23.254 0 0 0-1.995-2.993 25.826 25.826 0 0 1-.583 9.716ZM62.057 47.69c.123 1.064.192 2.133.207 3.203a27.807 27.807 0 0 0 6.175-6.378 24.386 24.386 0 0 0-1.11-3.082 25.253 25.253 0 0 1-5.272 6.262"/><path d="M52.954 52.588a23.767 23.767 0 0 1-4.353.81c-.302.027-.605.054-.911.067-.406 0-.812.031-1.222.031h-1.321a23.63 23.63 0 0 1-5.152-.867l-.16.044.151-.049a23.77 23.77 0 0 1-8.45-4.366c.425 1.149.938 2.26 1.533 3.324.051.094.108.183.164.277.224.394.462.783.708 1.159.293.16.591.317.89.447a26.628 26.628 0 0 0 5.138 1.905c1.137.29 2.291.503 3.455.64l.298.036a25.56 25.56 0 0 0 2.038.125h.7c.898 0 1.783-.049 2.655-.134a27.976 27.976 0 0 0 2.137-.313 25.972 25.972 0 0 0 5.035-1.472c.124-.98.188-1.968.19-2.956a23.643 23.643 0 0 1-3.532 1.315M46.468.009c-.997 0-1.993.057-2.984.17a25.837 25.837 0 0 0-3.455.635 26.72 26.72 0 0 0-5.142 1.897 26.2 26.2 0 0 0-2.928 1.681 27.679 27.679 0 0 0-7.484 7.327 28.296 28.296 0 0 0-1.805 2.957 28.167 28.167 0 0 0-.906 1.9 28.818 28.818 0 0 0-2.276 8.777 28.956 28.956 0 0 1 2.79-1.432 25.852 25.852 0 0 1 2.59-7.859c.316-.6.652-1.176 1.007-1.744a25.452 25.452 0 0 1 1.934-2.684 26.94 26.94 0 0 1 1.416-1.583c3-3.08 6.72-5.302 10.796-6.45a23.506 23.506 0 0 1 5.134-.855c.432-.026.864-.04 1.296-.04.73 0 1.446.04 2.159.107a23.923 23.923 0 0 1 10.105 3.314 24.865 24.865 0 0 1 7.81 7.422 28.926 28.926 0 0 1 4.75 3.327c-2.115-5-5.59-9.255-10-12.245-4.411-2.99-9.566-4.585-14.837-4.59M63.896 62.393l-.389.192c-.323.161-.651.318-.98.448-.134.058-.263.12-.397.174-.432.188-.89.367-1.339.523-.453.161-.906.3-1.364.448a30.679 30.679 0 0 1-1.727 3.13 26.433 26.433 0 0 0 7.75-2.759c.307-.447.597-.94.864-1.431.59-1.06 1.1-2.165 1.525-3.306a23.849 23.849 0 0 1-2.665 1.852c-.431.255-.863.492-1.295.72"/><path d="M51.386 65.037h-.026c-.48-.036-.96-.085-1.438-.148l-.431-.063a27.981 27.981 0 0 1-1.067-.183l-.432-.085a27.556 27.556 0 0 1-1.43-.345 25.144 25.144 0 0 1-2.258-.746 23.851 23.851 0 0 1-1.727-.756 23.823 23.823 0 0 1-2.59-1.436 23.323 23.323 0 0 1-1.46-1.02 24.246 24.246 0 0 1-2.863-2.518 23.837 23.837 0 0 1-1.425-1.597 30.023 30.023 0 0 1-1.4-1.874 32.54 32.54 0 0 1-.53-.81c-.22-.353-.432-.711-.635-1.078-.125-.219-.233-.447-.35-.662-.117-.215-.19-.358-.28-.541a26.127 26.127 0 0 1-2.431-14.832 24.475 24.475 0 0 0-2.009 3.037c-.056.098-.103.197-.155.29-.216.403-.432.806-.609 1.217 0 .34.03.684.056 1.029v.058c.141 1.803.452 3.587.928 5.327 0 .058.03.121.048.18.326 1.17.727 2.319 1.2 3.434l.1.255c.28.64.591 1.275.924 1.906.112.215.22.447.337.64.442.798.923 1.573 1.442 2.321.432.608.864 1.19 1.326 1.758a26.955 26.955 0 0 0 3.74 3.788c.474.394.958.779 1.454 1.137l.277-.13c-.09.045-.177.094-.268.134a26.42 26.42 0 0 0 2.591 1.642c.576.319 1.152.617 1.727.894a26.892 26.892 0 0 0 4.172 1.543c1.393.39 2.814.662 4.249.814a23.641 23.641 0 0 0 2.033-2.536c-.267 0-.535 0-.803-.035M76.401 25.63c-.28-.505-.578-.998-.889-1.476-.09-.143-.181-.282-.276-.42-.156-.233-.316-.448-.475-.685l-.246-.353c-.096-.13-.19-.264-.29-.39a22.028 22.028 0 0 0-1.04-1.301l-.078-.08a14.528 14.528 0 0 0-.61-.663c-.142-.16-.284-.322-.43-.474a23.605 23.605 0 0 0-.346-.353c-.29-.286-.583-.564-.864-.837l-.346-.313a24.618 24.618 0 0 0-1.239-1.028l-.155-.121c-.255-.192-.514-.371-.769-.555l-.376-.277-.431-.273c-.329-.22-.665-.447-1.002-.63l-.389-.233c-.224-.13-.458-.25-.686-.371-.23-.121-.463-.26-.696-.376l-.233-.112a24.78 24.78 0 0 0-1.213-.555l-.458-.192c-.363-.148-.73-.286-1.101-.42l-.406-.144a19.691 19.691 0 0 0-1.49-.447l-.29-.072c-.43-.107-.828-.205-1.251-.295l-.484-.098h-.112a29.278 29.278 0 0 0-1.063-.18l-.401-.057c-.22-.031-.432-.045-.665-.067-.298-.032-.592-.072-.89-.09h-.324c-.423-.02-.846-.034-1.27-.04h-.992c-.38 0-.76.031-1.14.058h-.268l-.518.054c-.16 0-.324.027-.484.049h-.203c-.38.05-.76.107-1.136.174l-.28.054c-.337.063-.674.13-1.01.206l-.173.04c-.377.09-.753.188-1.127.295l-.285.08c-.341.104-.687.211-1.028.327l-.125.04c-.376.13-.747.274-1.119.421l-.276.112c-.354.143-.708.295-1.058.447l-.07.031-.103.054c-.332.157-.665.318-.993.492l-.268.143-.431.25c-.208.122-.432.238-.627.363-.673.403-1.321.837-1.947 1.288-.505.367-1.006.743-1.481 1.141a27.2 27.2 0 0 0-3.723 3.766c.432-.022.89-.036 1.34-.036.716 0 1.42.036 2.12.09a24.684 24.684 0 0 1 2.85-2.5c.474-.358.97-.694 1.476-1.02.22-.139.432-.282.657-.412.431-.264.863-.5 1.295-.729.134-.072.272-.134.406-.201l.207-.099c.25-.12.51-.237.764-.348l.432-.184c.177-.076.35-.143.523-.21.172-.067.432-.175.673-.255l.173-.063c.458-.156.916-.3 1.378-.447l.406-.103c.336-.09.678-.17 1.019-.241.15-.032.298-.068.431-.094.38-.072.76-.139 1.136-.193l.277-.04c.466-.063.932-.107 1.403-.139l.376-.022.617-.031h.881c.354 0 .704 0 1.058.036h.38c.47.035.941.08 1.412.143l.35.053c.362.05.72.112 1.08.18l.431.084c.389.08.773.175 1.157.277l.238.059.216.062c.384.108.764.228 1.144.354l.341.125c.346.12.687.25 1.028.389l.389.166c.384.16.764.335 1.14.518.056.032.116.054.172.08.432.216.864.448 1.27.69l.32.192c.319.188.63.385.94.59l.35.238c.363.246.722.505 1.072.778l.112.08.147.121c.336.264.66.537.984.819l.294.268c.276.255.548.51.812.774l.263.26.043.049c.328.34.648.684.959 1.042l.056.062c.328.38.643.779.95 1.181.086.112.168.233.255.35.224.308.431.62.656.943l.25.376c.044.067.083.138.121.205V25.8a24.997 24.997 0 0 1 1.675 3.145 26.158 26.158 0 0 1 2.286 10.705c0 3.699-.78 7.353-2.285 10.706a30.746 30.746 0 0 1-.389 5.927c3.115-4.396 4.928-9.636 5.219-15.081a28.923 28.923 0 0 0-3.582-15.585"/><path d="m35.927 74.184-.406-.197c-.431-.233-.863-.47-1.317-.73a24.953 24.953 0 0 1-9.331-9.943 26.471 26.471 0 0 1-2.077-5.488 27.027 27.027 0 0 1-.501-2.393 26.362 26.362 0 0 1-.233-1.928 25.68 25.68 0 0 1-.1-3.046c0-.604.065-1.208.125-1.811.125-1.293.35-2.574.674-3.83.179-.694.383-1.381.613-2.061.26-.743.544-1.472.864-2.192.138-.3.272-.6.432-.895.185-.37.384-.742.587-1.109.121-.215.25-.425.376-.635.125-.21.207-.358.315-.528 2.684-4.309 6.58-7.661 11.163-9.603a22.289 22.289 0 0 0-3.52-.282h-.32c-.457 0-.91.031-1.36.063-.263.174-.526.349-.781.532a26.189 26.189 0 0 0-2.16 1.722 27.285 27.285 0 0 0-4.28 4.76l-.163.227a25.212 25.212 0 0 0-1.127 1.79c-.12.205-.25.411-.367.621a28.673 28.673 0 0 0-2.025 4.518 28.67 28.67 0 0 0-1.296 5.251 28.178 28.178 0 0 0-.302 5.019c0 .666.06 1.342.125 2.004a28.98 28.98 0 0 0 3.148 10.636 28.027 28.027 0 0 0 1.797 2.975c.432.604.863 1.194 1.317 1.762a27.445 27.445 0 0 0 6.153 5.547c.549.044 1.097.071 1.658.071 1.177 0 2.352-.095 3.515-.282l-.168-.076c-.328-.147-.656-.3-.98-.447M73.539 50.048a29.306 29.306 0 0 0-1.576-8.302 29.964 29.964 0 0 0-.812-2.067 28.688 28.688 0 0 0-1.568-3.095c-.354-.6-.734-1.18-1.131-1.753a27.422 27.422 0 0 0-6.197-6.41 25.635 25.635 0 0 0-1.606-1.091c-.207-.134-.41-.273-.626-.398a26.39 26.39 0 0 0-1.43-.792l-.431-.215-.19-.09c-.298-.142-.592-.286-.894-.42l-.432-.192-.35-.139c-.371-.152-.743-.304-1.114-.447h-.03c-.501-.175-1.006-.331-1.511-.474l-.467-.125a20.706 20.706 0 0 0-1.127-.273l-.47-.103c-.104-.022-.208-.036-.311-.054a26.88 26.88 0 0 0-1.197-.206h-.052c-.293-.04-.587-.058-.863-.089-.225 0-.432-.054-.67-.072l-.47-.026c-.389 0-.777-.036-1.17-.04h-1.058c-.337 0-.67.022-1.006.044h-.035c-.332.022-.67.058-1.002.094H43.51c.138.05.268.112.406.166 1.127.446 2.225.97 3.286 1.565.492.273.976.564 1.447.868.773.071 1.541.174 2.306.322.682.13 1.36.286 2.033.478 1.21.353 2.39.801 3.533 1.342.535.25 1.066.524 1.589.814.22.121.432.237.66.367a24.943 24.943 0 0 1 3.33 2.393 25.082 25.082 0 0 1 5.277 6.262c.34.579.656 1.168.95 1.767.497 1 .93 2.032 1.295 3.09.233.68.432 1.365.618 2.063a26.328 26.328 0 0 1 .596 9.733 25.004 25.004 0 0 1-.6 3.162c0 .059-.031.117-.048.175a25.46 25.46 0 0 1-1.438 4.07c-.117.269-.233.532-.363.796-.199.403-.406.797-.622 1.19-.216.394-.527.895-.807 1.342-.082.13-.164.25-.25.38l-.122.184c-.172.255-.354.51-.535.756l-.255.353a27.74 27.74 0 0 1-.946 1.176l-.064.067c-.307.358-.626.703-.95 1.038l-.311.313c-.262.26-.53.515-.803.765l-.307.278c-.367.322-.738.635-1.123.934l-.134.099c-.34.264-.69.514-1.049.76l-.363.242c-.302.2-.608.393-.92.581l-.336.201c-.432.237-.834.47-1.261.68l-.194.094c-.369.18-.74.35-1.114.51l-.406.166c-.333.138-.67.268-1.007.389l-.358.125c-.432.152-.898.29-1.356.416l-.246.063c-.38.103-.764.192-1.149.273l-.431.085c-.359.067-.717.13-1.076.178l-.354.054c-.285.036-.566.067-.863.094a28.406 28.406 0 0 1-5.156 2.612c.401.05.807.085 1.213.116h.35c.173 0 .341.023.514.027h.863c5.877.014 11.599-1.953 16.302-5.603 4.703-3.65 8.133-8.786 9.771-14.632a28.63 28.63 0 0 0 1.041-9.044"/><path d="M60.567 48.862a34.16 34.16 0 0 0-.212-1.892 28.437 28.437 0 0 0-2.107-7.29 28.71 28.71 0 0 0-1.585-3.091 27.42 27.42 0 0 0-1.127-1.745l-.138-.201a28.111 28.111 0 0 0-6.426-6.473c-.297-.214-.6-.42-.906-.621a26.105 26.105 0 0 0-2.907-1.669 26.2 26.2 0 0 0-8.593-2.531l-.246-.032a25.78 25.78 0 0 0-2.047-.125h-.704c-.893 0-1.779.05-2.65.134-.726.076-1.439.184-2.16.318a25.788 25.788 0 0 0-5.026 1.467c-.57.228-1.136.479-1.689.747-.913.447-1.803.946-2.664 1.494-.553.353-1.088.73-1.61 1.118a27.971 27.971 0 0 0-6.202 6.365 28.289 28.289 0 0 0-2.716 4.844c-.293.676-.57 1.365-.816 2.067a28.8 28.8 0 0 0-1.572 8.284c0 .402-.03.81-.03 1.22 0 .77.039 1.526.1 2.278.043.554.103 1.109.18 1.655a28.258 28.258 0 0 0 2.022 7.371c2.12 4.986 5.594 9.226 9.998 12.205 4.405 2.978 9.55 4.567 14.81 4.573a26.622 26.622 0 0 0 6.451-.805 26.373 26.373 0 0 0 8.105-3.6 27.621 27.621 0 0 0 6.12-5.538c.465-.567.91-1.156 1.333-1.767a28.19 28.19 0 0 0 1.801-2.952c.328-.618.626-1.253.907-1.901a28.636 28.636 0 0 0 2.258-8.758c.065-.658.095-1.342.113-1.99 0-.256.021-.506.021-.761 0-.805-.043-1.597-.103-2.389l.017-.009Zm-2.608 4.652a25.73 25.73 0 0 1-.238 1.928 25.703 25.703 0 0 1-2.59 7.877 25.747 25.747 0 0 1-2.954 4.424 20.03 20.03 0 0 1-1.421 1.579 24.505 24.505 0 0 1-7.794 5.367c-.966.413-1.955.764-2.963 1.051a23.714 23.714 0 0 1-6.447.9c-.725 0-1.446-.041-2.159-.108a23.922 23.922 0 0 1-10.076-3.295 24.86 24.86 0 0 1-7.801-7.382 26.093 26.093 0 0 1-1.792-3.06 26.22 26.22 0 0 1-1.883-5.072 26.847 26.847 0 0 1-.591-3.153 26.025 26.025 0 0 1 .591-9.729 25.46 25.46 0 0 1 1.909-5.157c.298-.6.613-1.19.954-1.762a25.322 25.322 0 0 1 5.281-6.263c.484-.411.985-.8 1.494-1.171.8-.587 1.634-1.124 2.496-1.606.518-.291 1.045-.555 1.585-.805a23.437 23.437 0 0 1 5.566-1.799c.691-.134 1.486-.245 2.246-.317.328-.031.652-.058.984-.076.402 0 .812-.032 1.218-.032h1.291c.432 0 .885.059 1.326.108a24.536 24.536 0 0 1 3.847.77c5.23 1.473 9.836 4.708 13.093 9.196a25.495 25.495 0 0 1 1.326 1.981c.34.573.656 1.159.954 1.762a23.316 23.316 0 0 1 1.27 3.06c.233.68.431 1.373.621 2.08.316 1.25.54 2.522.67 3.806.06.609.09 1.221.108 1.843v.778c0 .76-.04 1.512-.104 2.237M110.027 44.184H104.5v8.19h5.527v-8.19ZM110.027 38.879V26.963H104.5v15.941h5.527V38.88ZM112.584 26.958h-1.322v5.368h1.252c.839 0 1.643.345 2.236.959.592.614.925 1.447.925 2.315 0 .868-.333 1.701-.925 2.315a3.108 3.108 0 0 1-2.236.96h-1.252v5.331h1.322a8.073 8.073 0 0 0 3.245-.6 8.315 8.315 0 0 0 2.767-1.856 8.666 8.666 0 0 0 1.855-2.823 8.907 8.907 0 0 0 0-6.694 8.666 8.666 0 0 0-1.855-2.823 8.315 8.315 0 0 0-2.767-1.857 8.073 8.073 0 0 0-3.245-.6M135.768 32.187c2.695 0 4.525 1.933 4.525 5.01v1.261h5.528v-1.19c0-6.369-4.18-10.596-10.053-10.596a9.907 9.907 0 0 0-6.784 2.478l3.886 4.026a4.405 4.405 0 0 1 2.898-.989ZM131.238 39.523v-2.326a5.68 5.68 0 0 1 .803-3.069l-3.925-4.07a11.025 11.025 0 0 0-2.405 7.21v15.106h5.527V39.523ZM132.478 44.21h7.815v8.164h5.528V39.737h-13.343v4.474ZM179.036 52.374h5.532V38.798l-5.532-5.748v19.324ZM173.163 26.963v5.654h5.459l-5.437-5.654h-.022ZM190.475 32.617v-5.659h-15.55l9.643 10.029v-4.37h5.907ZM203.538 36.875c-2.246-1.038-3.317-1.754-3.317-3.078 0-1.145.967-1.753 1.9-1.753 1.14 0 1.9.322 3.144 1.897l3.731-4.08c-2.073-2.509-4.146-3.189-6.875-3.189-3.886 0-7.466 2.903-7.466 7.34 0 3.239 1.809 5.931 5.113 7.671l4.391-4.517-.621-.291ZM205.364 37.738l-4.404 4.518.816.38c2.072.966 2.867 1.682 2.867 2.831 0 1.15-.725 1.825-2.349 1.825-1.693 0-3.455-1.395-4.53-3.153l-4.18 3.547c1.693 3.292 4.875 4.974 8.813 4.974 4.56 0 7.808-2.97 7.808-7.55 0-3.328-1.771-5.784-4.841-7.372ZM152.099 26.963v9.165l8.848-9.165h-8.848ZM157.696 42.063l7.6 10.31h6.602l-7.984-10.775a7.359 7.359 0 0 0 3.625-3.07 7.775 7.775 0 0 0 1.078-4.72 7.687 7.687 0 0 0-1.913-4.426 7.225 7.225 0 0 0-4.116-2.312l-4.94 5.117h3.088c.33-.012.659.044.968.166.309.122.591.307.83.544a2.61 2.61 0 0 1 .758 1.831c-.002.34-.071.677-.202.989a2.54 2.54 0 0 1-.561.827 2.434 2.434 0 0 1-.829.534 2.36 2.36 0 0 1-.964.155h-3.109V32.21l-5.528 5.725v6.884l5.528 5.747v-8.498l.069-.005ZM152.099 52.374h5.523l-5.523-5.744v5.744ZM221.087 26.963h-5.532v9.29l5.532-5.694v-3.596ZM215.559 38.056v14.318h5.528V32.362l-5.528 5.694ZM279.809 32.187c3.973 0 6.979 3.4 6.979 7.479a7.836 7.836 0 0 1-1.559 4.741l3.847 4c2.259-2.448 3.504-5.713 3.469-9.099-.034-3.385-1.344-6.623-3.652-9.02-2.307-2.399-5.428-3.768-8.696-3.815-3.268-.046-6.424 1.232-8.795 3.563l3.817 3.967a6.674 6.674 0 0 1 4.59-1.816ZM279.81 47.15c-3.969 0-6.992-3.405-6.992-7.484a7.834 7.834 0 0 1 1.546-4.723l-3.847-4.004c-2.259 2.448-3.503 5.713-3.469 9.098.034 3.386 1.344 6.623 3.652 9.021 2.307 2.398 5.428 3.767 8.696 3.814 3.268.047 6.425-1.231 8.795-3.562l-3.817-3.968a6.672 6.672 0 0 1-4.577 1.79M331.947 39.599c-2.699 0-4.53-1.932-4.53-5.01v-1.753h-5.527v1.682c0 5.318 2.915 9.133 7.289 10.256v7.604h5.532v-7.604a9.46 9.46 0 0 0 3.886-2.026l-3.886-4.026a4.457 4.457 0 0 1-2.781.895M327.417 26.963h-5.527v4.594h5.527v-4.594ZM342 26.958h-5.527v7.631a5.6 5.6 0 0 1-.864 3.194l3.887 4.08c1.589-1.83 2.513-4.353 2.513-7.345l-.009-7.56ZM296.862 37.269v15.105h5.532V37.197a5.68 5.68 0 0 1 .798-3.064l-3.916-4.088a11.06 11.06 0 0 0-2.414 7.224ZM316.976 37.269c0-6.37-4.184-10.597-10.057-10.597a9.886 9.886 0 0 0-6.771 2.47l3.887 4.025a4.416 4.416 0 0 1 2.901-.993c2.695 0 4.526 1.932 4.526 5.01v1.896h5.531l-.017-1.811ZM316.972 40.373h-5.527v12h5.527v-12ZM252.523 26.695c-2.975 0-5.514 1.086-7.298 2.983-1.783-1.897-4.318-2.983-7.297-2.983a9.925 9.925 0 0 0-6.715 2.415l3.886 4.026a4.425 4.425 0 0 1 2.841-.944c2.695 0 4.526 1.932 4.526 5.01v1.945h5.54v-1.946c0-3.077 1.831-5.01 4.53-5.01a4.429 4.429 0 0 1 2.854.958l3.887-4.026a9.926 9.926 0 0 0-6.754-2.428ZM227.875 37.269v15.105h5.531V37.197a5.69 5.69 0 0 1 .838-3.131l-3.886-4.08c-1.559 1.825-2.466 4.321-2.466 7.283M242.457 52.374H247.998V40.422h-5.541v11.952ZM260.127 29.995l-3.908 4.084c.577.933.867 2.024.834 3.131v15.177h5.527V37.269c0-2.957-.898-5.449-2.453-7.273Z"/></g><defs><clipPath id="a"><path fill="#fff" d="M0 0h342v79.337H0z"/></clipPath></defs></svg>