<?xml version="1.0" standalone="no"?>
<!DOCTYPE svg PUBLIC "-//W3C//DTD SVG 20010904//EN"
 "http://www.w3.org/TR/2001/REC-SVG-20010904/DTD/svg10.dtd">
<svg version="1.0" xmlns="http://www.w3.org/2000/svg"
 width="700.000000pt" height="700.000000pt" viewBox="0 0 700.000000 700.000000"
 preserveAspectRatio="xMidYMid meet">
<metadata>
Created by potrace 1.14, written by Peter Selinger 2001-2017
</metadata>
<g transform="translate(0.000000,700.000000) scale(0.100000,-0.100000)"
fill="#000000" stroke="none">
<path d="M0 3500 l0 -3500 3500 0 3500 0 0 3500 0 3500 -3500 0 -3500 0 0
-3500z m3353 2605 c56 -9 117 -20 135 -25 24 -6 60 -3 130 11 142 30 448 37
602 15 222 -33 369 -79 575 -182 83 -41 193 -105 245 -141 124 -88 355 -319
443 -443 79 -113 196 -340 237 -463 24 -74 39 -100 95 -165 483 -564 585
-1358 260 -2027 -65 -134 -147 -260 -248 -381 -62 -76 -80 -106 -102 -170 -42
-124 -140 -319 -220 -439 -271 -405 -677 -678 -1164 -782 -116 -25 -145 -27
-361 -28 -193 0 -252 3 -330 19 -118 24 -133 24 -250 1 -148 -30 -512 -28
-669 3 -589 119 -1072 492 -1326 1024 -29 62 -66 149 -81 193 -28 84 -31 88
-130 207 -403 483 -523 1175 -309 1787 71 204 207 438 349 600 53 62 70 90 97
164 232 649 796 1115 1479 1222 120 19 416 19 543 0z"/>
<path d="M2915 5939 c-544 -57 -1033 -376 -1296 -844 l-33 -59 39 24 c240 149
467 235 723 276 l110 18 57 73 c129 164 340 344 530 451 50 28 97 56 105 61
19 12 -119 12 -235 0z"/>
<path d="M3900 5939 c8 -5 56 -33 105 -61 192 -108 393 -280 525 -448 60 -76
64 -79 114 -85 244 -32 526 -133 740 -264 37 -23 70 -41 71 -39 6 6 -87 155
-147 236 -57 77 -217 242 -293 303 -194 154 -448 274 -696 328 -155 33 -458
55 -419 30z"/>
<path d="M3423 5855 c-188 -63 -377 -170 -533 -301 -86 -72 -196 -181 -189
-188 2 -3 54 -10 114 -16 210 -21 418 -78 604 -166 l101 -47 99 47 c188 88
399 145 618 167 60 6 110 13 112 15 8 7 -128 140 -209 206 -146 119 -326 219
-509 282 -57 20 -104 36 -104 36 -1 0 -48 -16 -104 -35z"/>
<path d="M2540 5153 c-38 -48 -137 -264 -173 -378 -29 -91 -82 -344 -73 -352
1 -1 47 15 102 37 139 54 254 86 386 107 l114 17 44 60 c61 81 239 259 327
326 85 64 90 57 -73 113 -172 60 -388 97 -564 97 -63 0 -70 -2 -90 -27z"/>
<path d="M4245 5173 c-169 -20 -325 -59 -466 -114 l-77 -31 96 -78 c108 -87
223 -202 300 -301 l51 -66 87 -12 c122 -17 294 -63 415 -111 56 -22 103 -39
104 -38 4 4 -21 164 -34 223 -32 139 -106 327 -183 463 l-42 72 -110 -1 c-61
-1 -124 -4 -141 -6z"/>
<path d="M2225 5125 c-264 -70 -506 -199 -708 -377 l-65 -57 -21 -113 c-50
-262 -34 -558 46 -811 l18 -58 64 91 c130 184 283 336 465 462 l83 57 7 90
c17 226 86 482 182 674 19 37 31 67 27 67 -5 -1 -48 -12 -98 -25z"/>
<path d="M4764 5058 c91 -194 147 -403 168 -620 12 -121 13 -127 40 -142 172
-102 413 -338 533 -524 22 -33 43 -61 46 -62 8 0 43 128 64 228 39 187 43 400
11 592 -26 159 -26 160 -129 246 -206 173 -429 288 -687 354 -43 11 -81 20
-83 20 -3 0 14 -42 37 -92z"/>
<path d="M3439 4872 c-46 -31 -135 -106 -198 -167 l-113 -110 113 -11 c63 -6
153 -19 200 -28 79 -16 91 -16 166 -1 44 9 131 22 192 28 l112 12 -37 44 c-52
60 -187 176 -277 239 l-74 51 -84 -57z"/>
<path d="M3930 4409 c-25 -3 -40 -7 -35 -7 11 -2 128 -68 200 -112 l39 -24
-33 59 c-18 33 -38 65 -45 71 -15 15 -71 21 -126 13z"/>
<path d="M1177 4326 c-103 -180 -183 -425 -207 -636 -8 -62 -10 -165 -7 -254
8 -254 58 -450 171 -681 95 -193 91 -193 92 -3 1 243 41 456 127 668 l35 85
-20 50 c-93 232 -129 405 -137 662 l-6 193 -48 -84z"/>
<path d="M2967 4368 c-13 -24 -32 -58 -41 -77 l-18 -33 47 32 c25 17 83 51
128 76 l82 44 -87 0 -86 0 -25 -42z"/>
<path d="M5820 4261 c0 -230 -44 -465 -124 -668 l-37 -92 25 -58 c86 -206 126
-404 135 -658 l6 -190 37 65 c96 168 166 362 200 550 24 137 29 400 9 525 -37
230 -120 463 -225 630 l-25 40 -1 -144z"/>
<path d="M2675 4365 c-104 -27 -209 -64 -312 -111 l-73 -33 0 -48 c0 -100 58
-396 88 -450 7 -11 19 1 50 50 23 35 76 104 116 153 62 73 79 103 101 169 15
44 49 127 76 184 27 57 48 105 47 106 -2 1 -43 -8 -93 -20z"/>
<path d="M4280 4376 c0 -1 20 -45 44 -97 24 -52 56 -131 71 -177 22 -69 38
-95 90 -155 35 -40 90 -112 123 -160 l59 -87 22 75 c34 113 60 250 67 350 l7
91 -81 37 c-162 74 -402 148 -402 123z"/>
<path d="M3410 4320 c-179 -63 -367 -169 -515 -290 -110 -90 -114 -96 -138
-206 -30 -138 -32 -490 -3 -634 10 -52 22 -102 27 -111 13 -25 165 -151 259
-214 142 -95 413 -215 486 -215 62 0 289 95 431 181 97 59 276 199 299 234 44
67 76 407 55 593 -20 187 -38 252 -79 296 -45 47 -177 150 -255 199 -135 86
-393 197 -455 197 -15 0 -65 -14 -112 -30z"/>
<path d="M2030 4048 c-148 -118 -308 -303 -400 -463 -30 -53 -40 -82 -36 -98
3 -13 42 -78 86 -145 90 -137 230 -290 355 -389 l80 -63 12 90 c17 130 56 283
104 410 l41 110 -35 88 c-56 139 -117 389 -117 478 0 21 -5 34 -12 34 -7 -1
-42 -24 -78 -52z"/>
<path d="M4922 4007 c-16 -121 -51 -258 -98 -382 -20 -55 -37 -113 -37 -130 0
-16 21 -88 46 -160 44 -126 78 -270 92 -388 l6 -57 47 32 c138 98 334 318 434
488 l51 85 -33 61 c-45 84 -145 223 -226 312 -61 68 -248 232 -264 232 -3 0
-11 -42 -18 -93z"/>
<path d="M2507 3572 l-39 -67 28 -50 c56 -102 54 -103 54 48 0 75 -1 137 -2
137 -2 0 -20 -31 -41 -68z"/>
<path d="M4495 3499 c-1 -76 0 -139 2 -139 7 0 73 123 73 136 0 12 -59 125
-74 141 0 1 -1 -61 -1 -138z"/>
<path d="M1462 3188 c-61 -223 -78 -468 -47 -688 26 -178 33 -196 120 -270
157 -135 361 -254 545 -318 97 -34 237 -68 245 -60 3 3 -12 41 -34 84 -94 191
-156 427 -177 670 -6 75 -8 82 -35 98 -173 102 -418 343 -539 529 -23 37 -44
67 -45 67 -2 0 -17 -51 -33 -112z"/>
<path d="M2342 3173 c-30 -117 -45 -201 -58 -320 l-6 -62 79 -39 c93 -47 194
-84 302 -112 119 -30 117 -32 72 58 -22 43 -55 124 -75 180 -31 90 -44 112
-116 198 -44 54 -97 124 -118 156 -20 32 -40 58 -43 58 -4 0 -20 -53 -37 -117z"/>
<path d="M4618 3222 c-26 -38 -81 -111 -123 -161 -65 -78 -81 -106 -105 -177
-16 -46 -49 -126 -73 -178 l-45 -93 67 14 c98 22 232 68 332 115 74 34 89 45
89 64 0 56 -32 260 -54 345 -41 156 -35 151 -88 71z"/>
<path d="M5521 3252 c-128 -197 -328 -400 -514 -522 -73 -48 -69 -38 -82 -195
-15 -173 -73 -382 -156 -569 -27 -60 -47 -112 -44 -114 9 -9 206 47 309 88 55
23 150 69 210 103 109 62 303 210 337 257 50 68 79 457 50 659 -14 94 -66 310
-78 322 -5 4 -19 -9 -32 -29z"/>
<path d="M2928 2698 c65 -111 60 -105 106 -110 24 -3 60 -3 80 1 l37 6 -63 34
c-35 19 -87 49 -116 68 -29 18 -55 33 -58 33 -3 0 3 -15 14 -32z"/>
<path d="M4086 2704 c-21 -15 -75 -46 -120 -70 l-81 -44 85 0 86 0 38 66 c20
36 36 68 34 70 -2 2 -21 -8 -42 -22z"/>
<path d="M2290 2554 c0 -53 50 -273 85 -374 36 -102 104 -247 151 -322 l24
-38 118 0 c128 0 266 18 394 51 84 21 256 84 271 98 4 4 -30 36 -75 71 -95 73
-252 230 -318 318 l-45 59 -84 12 c-120 17 -290 63 -407 110 -56 23 -104 41
-108 41 -3 0 -6 -12 -6 -26z"/>
<path d="M4710 2566 c-89 -47 -321 -114 -473 -136 l-88 -13 -51 -66 c-68 -88
-258 -275 -336 -331 l-63 -45 53 -24 c170 -75 379 -121 590 -128 l146 -6 25
40 c111 175 208 453 233 666 7 60 4 64 -36 43z"/>
<path d="M3430 2443 c-36 -8 -119 -19 -185 -26 l-120 -12 91 -91 c84 -84 233
-204 289 -234 22 -12 31 -8 107 46 45 32 133 108 196 169 l114 110 -123 12
c-68 7 -156 19 -197 28 -85 17 -85 17 -172 -2z"/>
<path d="M5405 1934 c-185 -127 -485 -238 -740 -274 l-80 -12 -45 -60 c-60
-80 -208 -230 -296 -300 -88 -70 -219 -155 -301 -197 -35 -17 -63 -34 -63 -38
0 -11 294 5 380 22 457 88 848 343 1098 717 58 87 105 168 100 173 -1 1 -25
-13 -53 -31z"/>
<path d="M1590 1956 c0 -13 94 -163 147 -234 79 -107 251 -274 363 -355 177
-125 423 -233 632 -277 163 -33 457 -54 418 -29 -8 5 -64 38 -124 74 -195 116
-367 263 -500 428 -67 83 -70 86 -120 92 -268 35 -532 131 -780 284 -20 13
-36 20 -36 17z"/>
<path d="M3415 1815 c-175 -85 -383 -142 -610 -166 -60 -6 -112 -13 -114 -15
-7 -6 124 -136 199 -197 166 -134 344 -233 530 -297 l96 -32 94 31 c196 65
400 182 568 324 74 62 176 167 169 173 -1 2 -52 8 -112 14 -233 23 -467 90
-657 186 -26 13 -53 24 -60 23 -7 0 -53 -20 -103 -44z"/>
</g>
</svg>
